<?xml version="1.0" encoding="UTF-8"?>
<svg width="168px" height="200px" viewBox="0 0 168 200" version="1.1" xmlns="http://www.w3.org/2000/svg" xmlns:xlink="http://www.w3.org/1999/xlink">
    <!-- Generator: Sketch 41 (35326) - http://www.bohemiancoding.com/sketch -->
    <title>best-price</title>
    <desc>Created with Sketch.</desc>
    <defs></defs>
    <g id="Page-1" stroke="none" stroke-width="1" fill="none" fill-rule="evenodd">
        <g id="best-price" fill="#0080C5">
            <g id="Group">
                <path d="M150.091,65.046 L129.011,81.739 L122.264,81.739 L139.454,68.124 L147.476,61.766 L147.487,61.759 C147.574,61.691 147.646,61.605 147.725,61.526 C148.478,60.773 148.763,59.698 148.52,58.705 C148.42,58.293 148.249,57.899 147.972,57.554 L126.078,29.911 L119.721,21.885 C118.694,20.59 116.814,20.371 115.518,21.396 L107.474,27.77 L39.336,81.739 L32.582,81.739 L112.915,18.114 C116.016,15.661 120.554,16.187 123.01,19.284 L151.263,54.951 C153.715,58.052 153.188,62.591 150.091,65.046 Z M140.262,50.725 C140.267,50.722 140.267,50.722 140.269,50.718 L124.596,30.934 C119.499,33.972 112.964,33.213 108.684,29.103 L42.227,81.739 L74.332,81.739 C69.425,72.998 70.499,62.595 77.382,57.141 C85.171,50.972 97.437,53.483 104.775,62.747 C109.405,68.59 110.96,75.719 109.533,81.739 L119.369,81.739 L138.429,66.64 C135.393,61.54 136.149,55.007 140.262,50.725 Z M90.782,70.654 C87.517,71.7 85.99,71.9 85.216,70.922 C84.561,70.095 84.529,68.774 86.449,67.25 C88.581,65.564 90.477,65.165 91.504,64.881 L89.717,60.862 C88.366,61.16 86.705,61.802 84.652,63.283 L83.625,61.983 C83.362,61.65 82.97,61.415 82.507,61.366 C82.055,61.312 81.62,61.45 81.282,61.713 L80.998,61.941 C80.663,62.206 80.432,62.596 80.376,63.055 C80.323,63.511 80.46,63.947 80.726,64.282 L81.917,65.785 C79.244,68.914 79.026,72.408 81.088,75.009 C83.36,77.879 86.691,77.65 90.703,76.208 C93.476,75.211 94.986,75.172 95.875,76.293 C96.813,77.481 96.175,79.044 94.487,80.38 C93.795,80.929 93.064,81.374 92.327,81.738 L99.319,81.738 C102.097,78.497 102.146,74.86 100.1,72.276 C97.993,69.611 95.29,69.11 90.782,70.654 Z" id="Shape"></path>
                <path d="M151.031,77.586 L140.968,77.586 L148.582,71.552 C148.615,71.582 148.648,71.606 148.677,71.636 C150.246,73.206 151.031,75.263 151.031,77.32 L151.031,77.586 L151.031,77.586 Z M167.103,133.302 L167.103,152.588 C167.103,153.206 166.867,153.823 166.397,154.292 C165.923,154.764 165.307,155 164.69,155 L130.94,155 C127.856,155 124.773,153.823 122.419,151.47 C120.065,149.116 118.889,146.031 118.889,142.947 C118.889,139.86 120.065,136.775 122.419,134.422 C124.773,132.069 127.857,130.892 130.94,130.892 L164.69,130.892 C165.307,130.892 165.923,131.129 166.397,131.598 C166.866,132.068 167.103,132.687 167.103,133.302 Z M137.017,142.946 C137.017,139.59 134.296,136.869 130.94,136.869 C127.585,136.869 124.864,139.59 124.864,142.946 C124.864,146.301 127.585,149.022 130.94,149.022 C134.296,149.022 137.017,146.302 137.017,142.946 Z M130.939,159.016 L162.542,159.016 L162.542,187.947 C162.542,191.032 161.364,194.116 159.012,196.47 C156.658,198.824 153.574,200 150.487,200 L12.953,200 C9.868,200 6.783,198.823 4.432,196.47 C2.076,194.116 0.898,191.032 0.898,187.947 L0.898,81.336 C0.898,78.253 2.075,75.167 4.432,72.815 C6.783,70.46 9.869,69.285 12.953,69.285 L20.904,69.285 L17.345,77.587 L13.221,77.587 C12.193,77.587 11.164,77.98 10.381,78.765 C9.592,79.55 9.202,80.58 9.202,81.606 L9.202,81.873 C9.202,82.903 9.593,83.93 10.381,84.715 C11.164,85.5 12.193,85.892 13.221,85.892 L150.486,85.892 C153.573,85.892 156.658,87.069 159.011,89.422 C161.364,91.776 162.541,94.86 162.541,97.945 L162.541,126.874 L130.938,126.874 C126.646,126.874 122.611,128.545 119.575,131.579 C116.541,134.617 114.867,138.652 114.867,142.946 C114.867,147.239 116.541,151.273 119.575,154.309 C122.612,157.346 126.648,159.016 130.939,159.016 Z M153.298,116.025 C153.298,115.363 152.759,114.82 152.095,114.82 C151.431,114.82 150.89,115.363 150.89,116.025 L150.89,121.651 C150.89,122.313 151.431,122.856 152.095,122.856 C152.759,122.856 153.298,122.313 153.298,121.651 L153.298,116.025 Z M153.298,103.972 C153.298,103.31 152.759,102.767 152.095,102.767 C151.431,102.767 150.89,103.31 150.89,103.972 L150.89,109.598 C150.89,110.258 151.431,110.801 152.095,110.801 C152.759,110.801 153.298,110.258 153.298,109.598 L153.298,103.972 Z M148.644,96.338 C148.644,97.002 149.185,97.543 149.851,97.543 L150.487,97.543 C150.666,97.543 150.89,97.769 150.89,97.944 L150.89,98.582 C150.89,99.248 151.429,99.788 152.095,99.788 C152.761,99.788 153.298,99.248 153.298,98.582 L153.298,97.944 C153.298,96.446 151.986,95.132 150.486,95.132 L149.85,95.132 C149.185,95.133 148.644,95.671 148.644,96.338 Z M137.972,96.338 C137.972,97 138.514,97.543 139.178,97.543 L144.801,97.543 C145.465,97.543 146.01,97 146.01,96.338 C146.01,95.674 145.465,95.132 144.801,95.132 L139.178,95.132 C138.514,95.133 137.972,95.674 137.972,96.338 Z M125.918,96.338 C125.918,97 126.458,97.543 127.122,97.543 L132.747,97.543 C133.411,97.543 133.954,97 133.954,96.338 C133.954,95.674 133.411,95.132 132.747,95.132 L127.122,95.132 C126.458,95.133 125.918,95.674 125.918,96.338 Z M113.862,96.338 C113.862,97 114.407,97.543 115.071,97.543 L120.693,97.543 C121.357,97.543 121.899,97 121.899,96.338 C121.899,95.674 121.357,95.132 120.693,95.132 L115.071,95.132 C114.407,95.133 113.862,95.674 113.862,96.338 Z M10.14,98.583 C10.14,99.249 10.681,99.789 11.347,99.789 C12.013,99.789 12.551,99.249 12.551,98.583 L12.551,97.945 C12.551,97.77 12.777,97.544 12.954,97.544 L13.59,97.544 C14.257,97.544 14.795,97.003 14.795,96.339 C14.795,95.672 14.257,95.133 13.59,95.133 L12.954,95.133 C11.454,95.133 10.141,96.447 10.141,97.945 L10.141,98.583 L10.14,98.583 Z M10.14,109.598 C10.14,110.258 10.683,110.801 11.347,110.801 C12.011,110.801 12.551,110.258 12.551,109.598 L12.551,103.972 C12.551,103.31 12.011,102.767 11.347,102.767 C10.683,102.767 10.14,103.31 10.14,103.972 L10.14,109.598 Z M10.14,121.651 C10.14,122.313 10.683,122.856 11.347,122.856 C12.011,122.856 12.551,122.313 12.551,121.651 L12.551,116.025 C12.551,115.363 12.011,114.82 11.347,114.82 C10.683,114.82 10.14,115.363 10.14,116.025 L10.14,121.651 Z M10.14,133.705 C10.14,134.367 10.683,134.91 11.347,134.91 C12.011,134.91 12.551,134.367 12.551,133.705 L12.551,128.079 C12.551,127.417 12.011,126.874 11.347,126.874 C10.683,126.874 10.14,127.417 10.14,128.079 L10.14,133.705 Z M10.14,145.759 C10.14,146.423 10.683,146.964 11.347,146.964 C12.011,146.964 12.551,146.423 12.551,145.759 L12.551,140.133 C12.551,139.471 12.011,138.928 11.347,138.928 C10.683,138.928 10.14,139.471 10.14,140.133 L10.14,145.759 Z M10.14,157.813 C10.14,158.477 10.683,159.016 11.347,159.016 C12.011,159.016 12.551,158.477 12.551,157.813 L12.551,152.187 C12.551,151.525 12.011,150.982 11.347,150.982 C10.683,150.982 10.14,151.525 10.14,152.187 L10.14,157.813 Z M10.14,169.864 C10.14,170.53 10.683,171.071 11.347,171.071 C12.011,171.071 12.551,170.53 12.551,169.864 L12.551,164.24 C12.551,163.578 12.011,163.035 11.347,163.035 C10.683,163.035 10.14,163.578 10.14,164.24 L10.14,169.864 Z M10.14,181.92 C10.14,182.584 10.683,183.125 11.347,183.125 C12.011,183.125 12.551,182.584 12.551,181.92 L12.551,176.294 C12.551,175.632 12.011,175.089 11.347,175.089 C10.683,175.089 10.14,175.632 10.14,176.294 L10.14,181.92 Z M14.796,189.553 C14.796,188.888 14.256,188.348 13.59,188.348 L12.952,188.348 C12.775,188.348 12.549,188.122 12.549,187.947 L12.549,187.309 C12.549,186.643 12.011,186.104 11.345,186.104 C10.679,186.104 10.138,186.643 10.138,187.309 L10.138,187.947 C10.138,189.445 11.452,190.76 12.951,190.76 L13.589,190.76 C14.257,190.759 14.796,190.221 14.796,189.553 Z M25.471,189.553 C25.471,188.891 24.926,188.348 24.265,188.348 L18.64,188.348 C17.976,188.348 17.434,188.891 17.434,189.553 C17.434,190.215 17.976,190.759 18.64,190.759 L24.265,190.759 C24.926,190.759 25.471,190.215 25.471,189.553 Z M25.471,96.338 C25.471,95.674 24.926,95.132 24.265,95.132 L18.64,95.132 C17.976,95.132 17.434,95.674 17.434,96.338 C17.434,97 17.976,97.543 18.64,97.543 L24.265,97.543 C24.926,97.543 25.471,97 25.471,96.338 Z M37.523,189.553 C37.523,188.891 36.98,188.348 36.318,188.348 L30.696,188.348 C30.03,188.348 29.488,188.891 29.488,189.553 C29.488,190.215 30.03,190.759 30.696,190.759 L36.318,190.759 C36.98,190.759 37.523,190.215 37.523,189.553 Z M37.523,96.338 C37.523,95.674 36.98,95.132 36.318,95.132 L30.696,95.132 C30.03,95.132 29.488,95.674 29.488,96.338 C29.488,97 30.03,97.543 30.696,97.543 L36.318,97.543 C36.98,97.543 37.523,97 37.523,96.338 Z M49.579,189.553 C49.579,188.891 49.034,188.348 48.372,188.348 L42.746,188.348 C42.082,188.348 41.542,188.891 41.542,189.553 C41.542,190.215 42.082,190.759 42.746,190.759 L48.372,190.759 C49.034,190.759 49.579,190.215 49.579,189.553 Z M49.579,96.338 C49.579,95.674 49.034,95.132 48.372,95.132 L42.746,95.132 C42.082,95.132 41.542,95.674 41.542,96.338 C41.542,97 42.082,97.543 42.746,97.543 L48.372,97.543 C49.034,97.543 49.579,97 49.579,96.338 Z M61.63,189.553 C61.63,188.891 61.089,188.348 60.425,188.348 L54.801,188.348 C54.137,188.348 53.595,188.891 53.595,189.553 C53.595,190.215 54.137,190.759 54.801,190.759 L60.425,190.759 C61.089,190.759 61.63,190.215 61.63,189.553 Z M61.63,96.338 C61.63,95.674 61.089,95.132 60.425,95.132 L54.801,95.132 C54.137,95.132 53.595,95.674 53.595,96.338 C53.595,97 54.137,97.543 54.801,97.543 L60.425,97.543 C61.089,97.543 61.63,97 61.63,96.338 Z M73.684,189.553 C73.684,188.891 73.141,188.348 72.48,188.348 L66.855,188.348 C66.191,188.348 65.649,188.891 65.649,189.553 C65.649,190.215 66.191,190.759 66.855,190.759 L72.48,190.759 C73.141,190.759 73.684,190.215 73.684,189.553 Z M73.684,96.338 C73.684,95.674 73.141,95.132 72.48,95.132 L66.855,95.132 C66.191,95.132 65.649,95.674 65.649,96.338 C65.649,97 66.191,97.543 66.855,97.543 L72.48,97.543 C73.141,97.543 73.684,97 73.684,96.338 Z M85.738,189.553 C85.738,188.891 85.196,188.348 84.532,188.348 L78.908,188.348 C78.244,188.348 77.704,188.891 77.704,189.553 C77.704,190.215 78.244,190.759 78.908,190.759 L84.532,190.759 C85.196,190.759 85.738,190.215 85.738,189.553 Z M85.738,96.338 C85.738,95.674 85.196,95.132 84.532,95.132 L78.908,95.132 C78.244,95.132 77.704,95.674 77.704,96.338 C77.704,97 78.244,97.543 78.908,97.543 L84.532,97.543 C85.196,97.543 85.738,97 85.738,96.338 Z M97.792,189.553 C97.792,188.891 97.252,188.348 96.588,188.348 L90.961,188.348 C90.3,188.348 89.755,188.891 89.755,189.553 C89.755,190.215 90.3,190.759 90.961,190.759 L96.588,190.759 C97.252,190.759 97.792,190.215 97.792,189.553 Z M97.792,96.338 C97.792,95.674 97.252,95.132 96.588,95.132 L90.961,95.132 C90.3,95.132 89.755,95.674 89.755,96.338 C89.755,97 90.3,97.543 90.961,97.543 L96.588,97.543 C97.252,97.543 97.792,97 97.792,96.338 Z M109.847,189.553 C109.847,188.891 109.303,188.348 108.642,188.348 L103.017,188.348 C102.353,188.348 101.811,188.891 101.811,189.553 C101.811,190.215 102.353,190.759 103.017,190.759 L108.642,190.759 C109.303,190.759 109.847,190.215 109.847,189.553 Z M109.847,96.338 C109.847,95.674 109.303,95.132 108.642,95.132 L103.017,95.132 C102.353,95.132 101.811,95.674 101.811,96.338 C101.811,97 102.353,97.543 103.017,97.543 L108.642,97.543 C109.303,97.543 109.847,97 109.847,96.338 Z M121.899,189.553 C121.899,188.891 121.357,188.348 120.693,188.348 L115.071,188.348 C114.407,188.348 113.862,188.891 113.862,189.553 C113.862,190.215 114.407,190.759 115.071,190.759 L120.693,190.759 C121.357,190.759 121.899,190.215 121.899,189.553 Z M150.89,169.864 C150.89,170.53 151.431,171.071 152.095,171.071 C152.759,171.071 153.298,170.53 153.298,169.864 L153.298,164.24 C153.298,163.578 152.759,163.035 152.095,163.035 C151.431,163.035 150.89,163.578 150.89,164.24 L150.89,169.864 Z M150.89,181.92 C150.89,182.584 151.431,183.125 152.095,183.125 C152.759,183.125 153.298,182.584 153.298,181.92 L153.298,176.294 C153.298,175.632 152.759,175.089 152.095,175.089 C151.431,175.089 150.89,175.632 150.89,176.294 L150.89,181.92 Z M148.644,189.553 C148.644,190.221 149.185,190.759 149.851,190.759 L150.487,190.759 C151.987,190.759 153.299,189.445 153.299,187.946 L153.299,187.308 C153.299,186.642 152.762,186.103 152.096,186.103 C151.43,186.103 150.891,186.642 150.891,187.308 L150.891,187.946 C150.891,188.122 150.666,188.347 150.488,188.347 L149.852,188.347 C149.185,188.348 148.644,188.888 148.644,189.553 Z M137.972,189.553 C137.972,190.215 138.514,190.759 139.178,190.759 L144.801,190.759 C145.465,190.759 146.01,190.215 146.01,189.553 C146.01,188.891 145.465,188.348 144.801,188.348 L139.178,188.348 C138.514,188.348 137.972,188.891 137.972,189.553 Z M132.747,188.348 L127.122,188.348 C126.458,188.348 125.918,188.891 125.918,189.553 C125.918,190.215 126.458,190.759 127.122,190.759 L132.747,190.759 C133.411,190.759 133.954,190.215 133.954,189.553 C133.954,188.891 133.411,188.348 132.747,188.348 Z" id="Shape"></path>
                <path d="M53.047,52.989 L56.534,55.677 C55.766,56.413 54.286,57.667 53.214,60.166 C53.19,60.222 53.177,60.268 53.156,60.322 L48.342,64.136 C48.238,63.179 48.295,62.139 48.531,61.03 L46.767,60.275 C46.376,60.107 46.047,59.79 45.879,59.364 C45.707,58.937 45.728,58.481 45.893,58.089 L46.037,57.753 C46.207,57.36 46.524,57.033 46.953,56.861 C47.377,56.689 47.834,56.709 48.227,56.877 L49.748,57.532 C50.844,55.249 52.001,53.896 53.047,52.989 Z M104.363,18.506 L62.543,0.58 C58.911,-0.979 54.666,0.72 53.106,4.35 L19.936,81.739 L24.493,81.739 L52.917,15.433 L56.961,6 C57.613,4.483 59.374,3.779 60.891,4.431 L70.305,8.464 L101.657,21.907 L105.312,19.011 C105.012,18.823 104.698,18.648 104.363,18.506 Z M92.68,20.023 C92.683,20.018 92.683,20.015 92.683,20.013 L69.483,10.069 C66.445,15.169 60.337,17.611 54.616,16.033 L26.622,81.336 L41.201,69.79 C38.904,65.261 38.468,60.166 40.43,55.585 C44.344,46.452 56.326,42.824 67.192,47.481 C67.658,47.681 68.112,47.898 68.56,48.122 L93.216,28.593 C92.119,25.938 91.875,22.932 92.68,20.023 Z" id="Shape"></path>
            </g>
        </g>
    </g>
</svg>