<?xml version="1.0" encoding="UTF-8"?>
<svg width="200px" height="128px" viewBox="0 0 200 128" version="1.1" xmlns="http://www.w3.org/2000/svg" xmlns:xlink="http://www.w3.org/1999/xlink">
    <!-- Generator: Sketch 41 (35326) - http://www.bohemiancoding.com/sketch -->
    <title>customer</title>
    <desc>Created with Sketch.</desc>
    <defs></defs>
    <g id="Page-1" stroke="none" stroke-width="1" fill="none" fill-rule="evenodd">
        <g id="customer" fill="#0080C5">
            <g id="Group">
                <path d="M167.353,69.032 L147.73,29.686 C147.508,29.251 147.214,28.846 146.84,28.507 C146.465,28.169 146.045,27.921 145.607,27.764 L122.597,19.494 C120.994,18.918 119.277,18.609 117.49,18.625 C115.705,18.644 113.996,18.987 112.401,19.594 L94.942,26.254 C93.713,26.724 92.493,27.264 91.29,27.879 C90.888,28.087 90.493,28.312 90.1,28.533 C88.782,27.819 87.406,27.19 85.97,26.655 C81.39,24.943 76.7,24.365 72.161,24.753 L60.415,25.761 C59.904,25.805 59.388,25.963 58.906,26.246 C58.424,26.53 58.026,26.913 57.713,27.356 L31.265,65.007 C30.72,65.78 30.429,66.764 30.518,67.805 C30.605,68.846 31.053,69.759 31.715,70.415 L43.219,81.816 C42.588,82.971 42.188,84.268 42.096,85.656 C41.93,88.15 42.749,90.558 44.395,92.437 C46.043,94.315 48.322,95.44 50.818,95.603 C50.951,95.612 51.086,95.612 51.221,95.617 C50.198,98.924 51.035,102.68 53.7,105.202 C55.295,106.712 57.34,107.592 59.513,107.733 C58.113,111.203 58.87,115.341 61.731,118.048 C63.476,119.702 65.758,120.611 68.163,120.611 C70.667,120.611 73.003,119.633 74.767,117.867 C75.423,122.105 78.944,125.484 83.397,125.775 C83.602,125.789 83.812,125.798 84.017,125.798 C85.155,125.798 86.245,125.583 87.259,125.205 C88.915,126.309 90.889,126.917 92.99,126.832 C95.572,126.724 97.888,125.585 99.62,123.803 L93.293,117.49 C93.308,117.344 93.335,117.204 93.341,117.053 C93.423,115.813 93.253,114.613 92.884,113.498 L105.833,126.414 C107.467,127.079 109.245,127.412 111.097,127.337 C114.803,127.186 118.104,125.436 120.442,122.728 L121.738,121.225 C121.858,121.083 121.95,120.923 122.03,120.751 L102.093,100.869 C101.579,100.36 101.538,99.513 101.994,98.98 C102.451,98.45 103.243,98.432 103.753,98.941 L127.464,122.586 C128.756,123.039 130.139,123.26 131.576,123.201 C134.834,123.068 137.741,121.529 139.796,119.144 L142.927,115.52 C143.645,114.684 144.073,113.556 144.033,112.33 L123.226,91.586 C122.718,91.076 122.672,90.227 123.128,89.698 C123.588,89.167 124.378,89.149 124.887,89.658 L145.792,110.503 C146.65,110.732 147.551,110.844 148.477,110.807 C151.148,110.699 153.524,109.439 155.206,107.486 L156.047,106.512 C157.73,104.563 158.722,101.923 158.621,99.052 C158.519,96.182 157.349,93.632 155.535,91.822 L149.954,86.258 L151.364,87.662 L166.454,74.036 C167.095,73.46 167.56,72.653 167.73,71.705 C167.899,70.758 167.746,69.823 167.353,69.032 Z M51.08,91.569 C49.665,91.477 48.371,90.839 47.434,89.771 C46.498,88.706 46.036,87.339 46.13,85.921 C46.309,83.138 48.639,80.959 51.421,80.959 C51.539,80.959 51.659,80.962 51.777,80.969 C53.192,81.063 54.486,81.7 55.423,82.768 C56.359,83.835 56.821,85.201 56.73,86.619 C56.536,89.52 54.015,91.765 51.08,91.569 Z M60.127,103.719 C58.764,103.719 57.468,103.205 56.478,102.268 C54.377,100.282 54.263,96.935 56.213,94.819 C56.314,94.714 58.386,92.522 59.38,91.476 L59.902,90.921 C60.916,89.851 62.286,89.261 63.76,89.261 C65.124,89.261 66.421,89.778 67.409,90.717 C68.44,91.691 69.031,93.008 69.069,94.428 C69.108,95.843 68.592,97.192 67.618,98.22 L66.14,99.783 C65.824,100.115 65.485,100.474 65.138,100.84 C65.083,100.902 65.022,100.964 64.969,101.022 C64.711,101.293 64.483,101.533 64.306,101.718 C64.205,101.827 64.104,101.936 64,102.042 C63.974,102.069 63.954,102.092 63.952,102.095 C62.946,103.143 61.585,103.719 60.127,103.719 Z M71.984,114.945 C70.975,115.993 69.618,116.569 68.161,116.569 C66.797,116.569 65.498,116.052 64.511,115.114 C62.411,113.128 62.296,109.782 64.24,107.676 C64.286,107.626 65.503,106.338 66.882,104.883 L66.882,104.882 L67.906,103.801 C69.699,101.903 70.287,101.286 70.485,101.071 C70.508,101.05 70.535,101.025 70.554,101.003 L70.554,101.003 L70.558,101 C70.731,100.813 70.832,100.709 70.835,100.706 C71.847,99.636 73.219,99.045 74.694,99.045 C76.058,99.045 77.352,99.561 78.343,100.499 C79.374,101.475 79.962,102.793 80.001,104.209 C80.04,105.63 79.524,106.978 78.546,108.011 C78.451,108.111 72.189,114.727 71.984,114.945 Z M83.66,121.745 C80.738,121.551 78.516,119.017 78.709,116.097 C78.892,113.312 81.213,111.133 83.999,111.133 C84.117,111.133 84.237,111.137 84.355,111.144 C87.276,111.336 89.498,113.87 89.308,116.791 C89.116,119.69 86.599,121.938 83.66,121.745 Z M148.585,84.894 L107.251,43.684 L107.251,43.684 L107.717,42.507 C107.958,41.893 107.927,41.168 107.574,40.558 C107.22,39.95 106.628,39.596 106.008,39.563 L102.936,39.379 L102.936,39.379 L99.58,39.18 L99.325,43.158 C99.322,43.241 98.657,52.287 94.044,60.46 C89.315,68.847 83.049,71.739 82.094,71.925 C81.027,72.132 79.908,72.329 78.978,72.329 C78.339,72.329 77.847,72.239 77.426,72.046 L75.857,71.319 C75.199,71.014 74.697,70.454 74.432,69.74 C74.174,69.051 74.177,68.298 74.432,67.611 L90.153,33.109 L92.826,31.348 L93.903,30.938 L93.901,30.938 L113.659,23.402 C114.901,22.929 116.202,22.681 117.523,22.669 L117.633,22.668 C118.915,22.668 120.185,22.89 121.401,23.328 L144.412,31.598 L164.037,70.943 L148.585,84.894 Z" id="Shape"></path>
                <path d="M170.949,4.557 L155.415,12.302 C153.181,13.419 151.369,15.387 150.513,17.943 C149.658,20.5 149.923,23.161 151.034,25.4 L171.373,66.175 C172.488,68.408 174.455,70.223 177.016,71.075 C179.57,71.931 182.231,71.67 184.469,70.554 L200,62.805 L170.949,4.557 Z M184.429,62.829 C182.366,62.829 180.688,61.156 180.688,59.09 C180.688,57.022 182.366,55.345 184.429,55.345 C186.496,55.345 188.174,57.022 188.174,59.09 C188.174,61.156 186.496,62.829 184.429,62.829 Z" id="Shape"></path>
                <path d="M0,53.914 L14.202,63.891 C16.246,65.329 18.839,65.984 21.495,65.519 C24.153,65.056 26.367,63.558 27.802,61.515 L53.995,24.229 C55.434,22.186 56.089,19.59 55.626,16.936 C55.159,14.279 53.667,12.063 51.621,10.625 L37.417,0.65 L0,53.914 Z M12.25,52 C12.558,49.956 14.465,48.549 16.506,48.856 C18.552,49.165 19.957,51.073 19.651,53.116 C19.342,55.162 17.437,56.569 15.392,56.258 C13.347,55.952 11.941,54.046 12.25,52 Z" id="Shape"></path>
            </g>
        </g>
    </g>
</svg>