<?xml version="1.0" encoding="UTF-8"?>
<svg width="200px" height="194px" viewBox="0 0 200 194" version="1.1" xmlns="http://www.w3.org/2000/svg" xmlns:xlink="http://www.w3.org/1999/xlink">
    <!-- Generator: Sketch 41 (35326) - http://www.bohemiancoding.com/sketch -->
    <title>proffessional</title>
    <desc>Created with Sketch.</desc>
    <defs></defs>
    <g id="Page-1" stroke="none" stroke-width="1" fill="none" fill-rule="evenodd">
        <g id="proffessional" fill="#0080C5">
            <g id="Group">
                <path d="M157.009,114.575 C156.466,112.183 155.141,109.927 153.055,108.102 C150.952,106.289 148.39,105.195 145.732,104.795 L102.992,96.524 L115.356,104.729 L95.835,165.924 L84.842,120.467 L73.846,165.924 L54.33,104.73 L66.692,96.525 L23.949,104.796 C21.293,105.195 18.728,106.29 16.628,108.103 C14.54,109.927 13.215,112.184 12.672,114.576 L0,170.235 L23.901,178.533 C31.843,186.78 54.055,192.849 80.698,193.426 L84.841,193.426 L88.981,193.426 C115.627,192.85 137.839,186.78 145.777,178.533 L169.682,170.235 L157.009,114.575 Z" id="Shape"></path>
                <polygon id="Shape" points="84.841 102.735 74.987 106.265 84.841 120.469 94.693 106.265"></polygon>
                <path d="M121.418,47.925 C121.418,22.663 111.024,2.865 84.841,2.865 C58.655,2.865 48.262,22.663 48.262,47.925 C45.524,49.355 43.727,52.707 46.414,59.892 C47.772,63.501 50.164,66.524 52.191,68.106 C59.652,86.684 74.328,101.027 84.841,101.027 C95.349,101.027 110.027,86.683 117.487,68.106 C119.518,66.524 121.907,63.502 123.263,59.892 C125.956,52.707 124.158,49.354 121.418,47.925 Z" id="Shape"></path>
                <g transform="translate(105.000000, 0.000000)" id="Shape">
                    <path d="M42.349,37.985 L22.925,37.985 C23.05,39.089 23.156,40.207 23.24,41.35 L42.348,41.35 L42.348,37.985 L42.349,37.985 Z"></path>
                    <path d="M81.626,26.385 L20.613,26.385 C20.941,27.48 21.227,28.609 21.499,29.752 L81.626,29.752 L81.626,26.385 Z"></path>
                    <path d="M92.701,2.875 C91.167,1.343 89.156,0.574 87.145,0.574 L0.691,0.574 C4.526,2.589 7.926,5.22 10.85,8.43 L87.145,8.43 L87.145,63.42 L66.12,63.42 L50.205,79.337 L50.205,63.42 L24.446,63.42 C23.209,66.321 21.442,69.065 19.405,71.278 L42.348,71.278 L42.348,92.884 C42.348,93.762 42.869,94.598 43.732,94.957 C44.597,95.316 45.556,95.095 46.179,94.47 L69.374,71.277 L87.145,71.277 C89.156,71.277 91.166,70.508 92.701,68.974 C94.235,67.44 95,65.43 95,63.419 L95,8.43 C95,6.419 94.235,4.411 92.701,2.875 Z"></path>
                    <path d="M81.626,14.79 L15.563,14.79 C16.215,15.871 16.832,16.991 17.407,18.157 L81.626,18.157 L81.626,14.79 L81.626,14.79 Z"></path>
                </g>
            </g>
        </g>
    </g>
</svg>