<?xml version="1.0" ?><!DOCTYPE svg  PUBLIC '-//W3C//DTD SVG 1.1//EN'  'http://www.w3.org/Graphics/SVG/1.1/DTD/svg11.dtd'><svg enable-background="new 0 0 100 100" height="100px" id="Layer_1" version="1.1" viewBox="0 0 100 100" width="100px" xml:space="preserve" xmlns="http://www.w3.org/2000/svg" xmlns:xlink="http://www.w3.org/1999/xlink"><g><g><g><g><path d="M47.023,14.461c-20.009,0-36.224,16.048-36.224,35.838c0,19.796,16.215,35.839,36.224,35.839      c20.004,0,36.223-16.043,36.223-35.839C83.246,30.509,67.027,14.461,47.023,14.461z M73.65,36.522      c0.668-0.382,1.523-0.155,1.908,0.506s0.158,1.507-0.512,1.89c-0.668,0.377-1.521,0.154-1.906-0.506      C72.754,37.751,72.984,36.904,73.65,36.522z M70.359,36.915c0.668-0.382,1.52-0.155,1.908,0.501      c0.383,0.66,0.156,1.507-0.512,1.889s-1.521,0.154-1.904-0.506C69.461,38.139,69.691,37.297,70.359,36.915z M70.975,48.963      c0.771,0,1.395,0.619,1.395,1.383c0,0.759-0.623,1.379-1.395,1.379s-1.398-0.62-1.398-1.379      C69.576,49.582,70.203,48.963,70.975,48.963z M68.975,37.808c0.383,0.661,0.154,1.503-0.512,1.884      c-0.668,0.383-1.521,0.155-1.908-0.506c-0.383-0.655-0.156-1.502,0.514-1.884C67.732,36.92,68.59,37.146,68.975,37.808z       M65.752,23.241c0.389-0.661,1.24-0.888,1.91-0.506c0.666,0.382,0.895,1.224,0.512,1.884c-0.389,0.661-1.244,0.889-1.908,0.506      C65.598,24.743,65.367,23.902,65.752,23.241z M63.1,25.203c0.387-0.661,1.238-0.889,1.906-0.506      c0.67,0.381,0.896,1.229,0.512,1.889c-0.389,0.66-1.242,0.888-1.908,0.506C62.941,26.71,62.711,25.863,63.1,25.203z       M60.445,27.17c0.383-0.661,1.238-0.889,1.906-0.506c0.668,0.381,0.896,1.223,0.51,1.883c-0.385,0.661-1.238,0.889-1.906,0.506      C60.287,28.672,60.059,27.83,60.445,27.17z M57.789,29.131c0.387-0.66,1.238-0.883,1.91-0.501      c0.664,0.377,0.893,1.224,0.508,1.884c-0.385,0.661-1.238,0.889-1.906,0.506C57.633,30.639,57.402,29.797,57.789,29.131z       M50.941,16.227c0.768,0,1.395,0.619,1.395,1.378c0,0.764-0.627,1.384-1.395,1.384c-0.772,0-1.396-0.62-1.396-1.384      C49.544,16.846,50.168,16.227,50.941,16.227z M49.636,19.24c0.771,0,1.394,0.62,1.394,1.379c0,0.764-0.623,1.383-1.394,1.383      c-0.772,0-1.398-0.619-1.398-1.383C48.238,19.86,48.863,19.24,49.636,19.24z M48.329,22.256c0.771,0,1.396,0.619,1.396,1.377      c0,0.765-0.625,1.384-1.396,1.384c-0.771,0-1.398-0.619-1.398-1.384C46.931,22.875,47.558,22.256,48.329,22.256z M47.023,25.27      c0.77,0,1.396,0.619,1.396,1.379c0,0.764-0.626,1.383-1.396,1.383c-0.771,0-1.396-0.619-1.396-1.383      C45.627,25.889,46.251,25.27,47.023,25.27z M36.257,29.131c0.384,0.666,0.155,1.508-0.511,1.889      c-0.668,0.383-1.522,0.155-1.908-0.506c-0.384-0.66-0.156-1.507,0.512-1.884C35.016,28.248,35.871,28.471,36.257,29.131z       M35.863,25.879c0.387,0.66,0.157,1.502-0.51,1.884c-0.668,0.382-1.523,0.155-1.907-0.506c-0.387-0.661-0.158-1.502,0.51-1.884      C34.625,24.991,35.478,25.219,35.863,25.879z M35.47,22.621c0.386,0.661,0.158,1.503-0.51,1.885      c-0.667,0.382-1.521,0.154-1.906-0.506c-0.385-0.66-0.159-1.502,0.509-1.885C34.231,21.734,35.086,21.961,35.47,22.621z       M33.171,18.859c0.667-0.383,1.522-0.155,1.908,0.506c0.385,0.66,0.154,1.502-0.512,1.883c-0.668,0.383-1.522,0.155-1.906-0.506      C32.275,20.082,32.504,19.24,33.171,18.859z M26.978,37.302c0.668,0.382,0.896,1.229,0.512,1.884      c-0.386,0.661-1.241,0.889-1.907,0.506c-0.669-0.381-0.897-1.223-0.511-1.884S26.31,36.92,26.978,37.302z M24.993,34.675      c0.666,0.382,0.896,1.229,0.511,1.884c-0.387,0.666-1.242,0.888-1.908,0.506c-0.667-0.377-0.896-1.223-0.51-1.884      C23.471,34.52,24.324,34.293,24.993,34.675z M23.006,32.053c0.668,0.377,0.897,1.223,0.51,1.884      c-0.383,0.661-1.239,0.888-1.905,0.506c-0.668-0.382-0.896-1.229-0.512-1.89C21.483,31.893,22.339,31.665,23.006,32.053z       M19.113,29.926c0.386-0.656,1.24-0.883,1.906-0.506c0.669,0.387,0.898,1.229,0.512,1.889c-0.386,0.661-1.24,0.889-1.907,0.506      C18.957,31.434,18.728,30.586,19.113,29.926z M13.93,47.848c-0.772,0-1.396-0.619-1.396-1.379c0-0.764,0.624-1.383,1.396-1.383      c0.769,0,1.396,0.619,1.396,1.383C15.327,47.229,14.699,47.848,13.93,47.848z M17.102,64.552      c-0.667,0.382-1.522,0.154-1.908-0.506c-0.383-0.661-0.157-1.503,0.512-1.885c0.668-0.382,1.521-0.154,1.905,0.506      C17.998,63.328,17.769,64.169,17.102,64.552z M16.978,49.139c-0.771,0-1.398-0.615-1.398-1.379s0.626-1.383,1.398-1.383      c0.771,0,1.396,0.619,1.396,1.383S17.749,49.139,16.978,49.139z M20.395,64.164c-0.669,0.382-1.523,0.155-1.907-0.506      c-0.385-0.66-0.156-1.502,0.51-1.884c0.667-0.388,1.521-0.155,1.908,0.501C21.292,62.94,21.063,63.782,20.395,64.164z       M20.023,50.434c-0.77,0-1.395-0.619-1.395-1.378c0-0.765,0.625-1.384,1.395-1.384c0.772,0,1.398,0.619,1.398,1.384      C21.421,49.814,20.795,50.434,20.023,50.434z M23.687,63.777c-0.67,0.382-1.524,0.154-1.908-0.506      c-0.385-0.661-0.156-1.508,0.512-1.885c0.666-0.387,1.521-0.159,1.906,0.501C24.581,62.549,24.354,63.396,23.687,63.777z       M23.071,51.725c-0.772,0-1.396-0.62-1.396-1.379c0-0.764,0.625-1.383,1.396-1.383c0.771,0,1.396,0.619,1.396,1.383      C24.467,51.104,23.842,51.725,23.071,51.725z M25.071,62.884c-0.386-0.66-0.158-1.507,0.511-1.889      c0.667-0.382,1.521-0.155,1.907,0.506c0.384,0.66,0.157,1.502-0.512,1.884S25.457,63.54,25.071,62.884z M28.291,77.445      c-0.385,0.661-1.238,0.888-1.908,0.506c-0.666-0.382-0.895-1.218-0.508-1.879c0.386-0.66,1.239-0.888,1.907-0.516      C28.449,75.938,28.677,76.785,28.291,77.445z M30.947,75.484c-0.387,0.66-1.239,0.888-1.907,0.506      c-0.668-0.382-0.896-1.229-0.512-1.89c0.385-0.66,1.24-0.888,1.907-0.506S31.332,74.823,30.947,75.484z M33.601,73.522      c-0.384,0.661-1.24,0.888-1.908,0.506c-0.666-0.382-0.895-1.229-0.51-1.889c0.387-0.661,1.24-0.889,1.907-0.506      C33.757,72.016,33.986,72.862,33.601,73.522z M36.257,71.551c-0.386,0.661-1.241,0.888-1.908,0.506      c-0.667-0.382-0.896-1.224-0.512-1.884c0.386-0.661,1.24-0.888,1.908-0.506C36.412,70.049,36.641,70.89,36.257,71.551z       M43.105,84.466c-0.771,0-1.396-0.619-1.396-1.384c0-0.764,0.625-1.383,1.396-1.383c0.771,0,1.396,0.619,1.396,1.383      C44.501,83.847,43.876,84.466,43.105,84.466z M44.41,81.451c-0.771,0-1.396-0.619-1.396-1.384c0-0.764,0.625-1.383,1.396-1.383      s1.396,0.619,1.396,1.383C45.806,80.832,45.181,81.451,44.41,81.451z M45.717,78.437c-0.771,0-1.397-0.619-1.397-1.383      c0-0.765,0.626-1.384,1.397-1.384c0.772,0,1.396,0.619,1.396,1.384C47.113,77.817,46.489,78.437,45.717,78.437z M47.023,75.422      c-0.771,0-1.396-0.619-1.396-1.383c0-0.765,0.624-1.384,1.396-1.384c0.77,0,1.396,0.619,1.396,1.384      C48.419,74.803,47.793,75.422,47.023,75.422z M57.789,71.551c-0.387-0.661-0.156-1.502,0.512-1.884s1.521-0.155,1.906,0.506      c0.385,0.66,0.156,1.502-0.508,1.884C59.027,72.438,58.176,72.212,57.789,71.551z M58.182,74.813      c-0.385-0.661-0.156-1.508,0.512-1.89c0.666-0.382,1.521-0.155,1.908,0.506c0.383,0.661,0.154,1.507-0.514,1.89      C59.422,75.701,58.566,75.474,58.182,74.813z M58.574,78.065c-0.385-0.661-0.154-1.508,0.51-1.879      c0.668-0.383,1.525-0.166,1.908,0.506c0.387,0.65,0.156,1.507-0.512,1.879C59.814,78.953,58.959,78.726,58.574,78.065z       M60.875,81.833c-0.67,0.382-1.523,0.155-1.906-0.506c-0.387-0.66-0.16-1.507,0.508-1.889c0.672-0.383,1.523-0.155,1.906,0.506      C61.771,80.604,61.541,81.451,60.875,81.833z M47.023,70.932c-11.521,0-20.858-9.234-20.858-20.633      c0-11.396,9.338-20.637,20.858-20.637c11.52,0,20.858,9.24,20.858,20.637C67.881,61.697,58.543,70.932,47.023,70.932z       M67.068,63.385c-0.67-0.382-0.896-1.224-0.514-1.884c0.387-0.661,1.24-0.888,1.908-0.506c0.666,0.382,0.895,1.229,0.512,1.889      C68.59,63.54,67.732,63.767,67.068,63.385z M69.053,66.012c-0.668-0.376-0.896-1.229-0.51-1.884      c0.385-0.66,1.236-0.888,1.904-0.506c0.672,0.382,0.898,1.224,0.514,1.89C70.574,66.167,69.721,66.395,69.053,66.012z       M71.037,68.64c-0.666-0.382-0.893-1.224-0.51-1.884c0.385-0.666,1.24-0.889,1.906-0.506c0.67,0.376,0.896,1.223,0.51,1.884      C72.561,68.794,71.707,69.021,71.037,68.64z M74.932,70.761c-0.385,0.666-1.238,0.883-1.906,0.512      c-0.67-0.393-0.896-1.234-0.51-1.89c0.385-0.661,1.236-0.893,1.908-0.511C75.09,69.254,75.318,70.101,74.932,70.761z       M74.021,53.015c-0.771,0-1.396-0.614-1.396-1.378s0.625-1.384,1.396-1.384s1.396,0.62,1.396,1.384S74.793,53.015,74.021,53.015      z M77.068,54.311c-0.77,0-1.396-0.62-1.396-1.384s0.627-1.378,1.396-1.378c0.771,0,1.395,0.614,1.395,1.378      S77.84,54.311,77.068,54.311z M78.34,38.53c-0.67,0.377-1.523,0.149-1.908-0.511c-0.385-0.656-0.156-1.502,0.514-1.885      c0.666-0.381,1.518-0.154,1.904,0.506C79.238,37.302,79.006,38.144,78.34,38.53z M80.117,55.601      c-0.771,0-1.396-0.619-1.396-1.378c0-0.764,0.625-1.384,1.396-1.384c0.77,0,1.393,0.62,1.393,1.384      C81.51,54.981,80.887,55.601,80.117,55.601z" fill="#808184"/><path d="M47.023,33.756c-9.237,0-16.724,7.407-16.724,16.543c0,9.137,7.487,16.544,16.724,16.544      s16.723-7.407,16.723-16.544C63.746,41.163,56.26,33.756,47.023,33.756z M55.025,39.336c0.852-0.842,2.227-0.842,3.08,0      c0.85,0.842,0.85,2.204,0,3.045c-0.854,0.842-2.229,0.842-3.08,0C54.176,41.54,54.176,40.178,55.025,39.336z M47.023,34.799      c1.202,0,2.175,0.96,2.175,2.152c0,1.188-0.974,2.152-2.175,2.152s-2.176-0.965-2.176-2.152      C44.847,35.759,45.821,34.799,47.023,34.799z M35.941,39.336c0.849-0.842,2.227-0.842,3.078,0c0.849,0.842,0.849,2.204,0,3.045      c-0.851,0.842-2.229,0.842-3.078,0C35.09,41.54,35.09,40.178,35.941,39.336z M33.529,52.452c-1.203,0-2.179-0.966-2.179-2.153      c0-1.187,0.976-2.152,2.179-2.152c1.2,0,2.174,0.966,2.174,2.152C35.703,51.486,34.729,52.452,33.529,52.452z M39.019,61.264      c-0.851,0.841-2.229,0.841-3.078,0c-0.851-0.842-0.851-2.204,0-3.046c0.849-0.842,2.227-0.842,3.078,0      C39.868,59.06,39.868,60.422,39.019,61.264z M47.023,65.806c-1.202,0-2.176-0.965-2.176-2.152c0-1.192,0.975-2.158,2.176-2.158      s2.175,0.966,2.175,2.158C49.198,64.841,48.225,65.806,47.023,65.806z M47.023,60.169c-5.511,0-9.976-4.419-9.976-9.87      c0-5.45,4.465-9.869,9.976-9.869c5.508,0,9.975,4.419,9.975,9.869C56.998,55.75,52.531,60.169,47.023,60.169z M58.105,61.264      c-0.854,0.841-2.229,0.841-3.08,0c-0.85-0.842-0.85-2.204,0-3.046c0.852-0.842,2.227-0.842,3.08,0      C58.955,59.06,58.955,60.422,58.105,61.264z M60.518,52.452c-1.203,0-2.176-0.966-2.176-2.153c0-1.187,0.973-2.152,2.176-2.152      c1.201,0,2.176,0.966,2.176,2.152C62.693,51.486,61.719,52.452,60.518,52.452z" fill="#808184"/><path d="M47.023,40.43c-5.511,0-9.976,4.419-9.976,9.869c0,5.451,4.465,9.87,9.976,9.87      c5.508,0,9.975-4.419,9.975-9.87C56.998,44.849,52.531,40.43,47.023,40.43z M47.023,58.017c-4.308,0-7.799-3.459-7.799-7.718      c0-4.258,3.491-7.717,7.799-7.717c4.307,0,7.797,3.459,7.797,7.717C54.82,54.558,51.33,58.017,47.023,58.017z" fill="#808184"/></g><linearGradient gradientUnits="userSpaceOnUse" id="SVGID_1_" x1="19.4771" x2="74.9202" y1="23.832" y2="76.2431"><stop offset="0.0056" style="stop-color:#858788"/><stop offset="0.4859" style="stop-color:#C1C3C3"/><stop offset="0.5841" style="stop-color:#BBBCBD"/><stop offset="0.7226" style="stop-color:#A8AAAA"/><stop offset="0.8843" style="stop-color:#8B8C8D"/><stop offset="1" style="stop-color:#717273"/></linearGradient><path d="M47.023,12.871c-20.659,0-37.403,16.559-37.403,37c0,20.436,16.744,37,37.403,37     c20.655,0,37.401-16.564,37.401-37C84.424,29.43,67.678,12.871,47.023,12.871z M47.023,85.704     c-20.009,0-36.224-16.043-36.224-35.833c0-19.796,16.215-35.839,36.224-35.839c20.004,0,36.223,16.043,36.223,35.839     C83.246,69.661,67.027,85.704,47.023,85.704z" fill="url(#SVGID_1_)"/><linearGradient gradientUnits="userSpaceOnUse" id="SVGID_2_" x1="9.6177" x2="84.4195" y1="49.8682" y2="49.8682"><stop offset="0" style="stop-color:#B1B2B3"/><stop offset="0.1141" style="stop-color:#CBCBCB"/><stop offset="0.25" style="stop-color:#E2E2E1"/><stop offset="0.3772" style="stop-color:#F0F0EE"/><stop offset="0.4859" style="stop-color:#F5F5F3"/><stop offset="0.5872" style="stop-color:#EEEFED"/><stop offset="0.7296" style="stop-color:#DCDDDC"/><stop offset="0.7966" style="stop-color:#D1D2D2"/></linearGradient><path d="M47.023,14.032c-20.009,0-36.224,16.043-36.224,35.839c0,19.79,16.215,35.833,36.224,35.833     c20.004,0,36.223-16.043,36.223-35.833C83.246,30.075,67.027,14.032,47.023,14.032z M73.65,36.094     c0.668-0.382,1.523-0.154,1.908,0.506c0.385,0.661,0.158,1.502-0.512,1.885c-0.668,0.382-1.521,0.154-1.906-0.506     C72.754,37.317,72.984,36.477,73.65,36.094z M70.359,36.481c0.668-0.382,1.52-0.155,1.908,0.506     c0.383,0.661,0.156,1.507-0.512,1.89c-0.668,0.376-1.521,0.154-1.904-0.512C69.461,37.71,69.691,36.863,70.359,36.481z      M70.975,48.534c0.771,0,1.395,0.614,1.395,1.378s-0.623,1.384-1.395,1.384s-1.398-0.62-1.398-1.384S70.203,48.534,70.975,48.534     z M68.975,37.374c0.383,0.661,0.154,1.507-0.512,1.89c-0.668,0.382-1.521,0.154-1.908-0.506c-0.383-0.661-0.156-1.508,0.514-1.89     C67.732,36.486,68.59,36.713,68.975,37.374z M65.752,22.808c0.389-0.661,1.24-0.888,1.91-0.506     c0.666,0.382,0.895,1.229,0.512,1.89c-0.389,0.66-1.244,0.887-1.908,0.506C65.598,24.314,65.367,23.469,65.752,22.808z      M63.1,24.774c0.387-0.661,1.238-0.888,1.906-0.506c0.67,0.382,0.896,1.224,0.512,1.884c-0.389,0.66-1.242,0.888-1.908,0.506     C62.941,26.276,62.711,25.436,63.1,24.774z M60.445,26.74c0.383-0.66,1.238-0.887,1.906-0.51c0.668,0.381,0.896,1.229,0.51,1.889     c-0.385,0.66-1.238,0.888-1.906,0.506S60.059,27.396,60.445,26.74z M57.789,28.702c0.387-0.661,1.238-0.888,1.91-0.506     c0.664,0.382,0.893,1.229,0.508,1.884c-0.385,0.666-1.238,0.894-1.906,0.506C57.633,30.209,57.402,29.363,57.789,28.702z      M50.941,15.793c0.768,0,1.395,0.619,1.395,1.383s-0.627,1.379-1.395,1.379c-0.772,0-1.396-0.615-1.396-1.379     S50.168,15.793,50.941,15.793z M49.636,18.807c0.771,0,1.394,0.62,1.394,1.384c0,0.759-0.623,1.384-1.394,1.384     c-0.772,0-1.398-0.625-1.398-1.384C48.238,19.427,48.863,18.807,49.636,18.807z M48.329,21.822c0.771,0,1.396,0.619,1.396,1.383     s-0.625,1.383-1.396,1.383c-0.771,0-1.398-0.619-1.398-1.383S47.558,21.822,48.329,21.822z M47.023,24.836     c0.77,0,1.396,0.619,1.396,1.384c0,0.764-0.626,1.378-1.396,1.378c-0.771,0-1.396-0.614-1.396-1.378     C45.627,25.455,46.251,24.836,47.023,24.836z M36.257,28.702c0.384,0.661,0.155,1.507-0.511,1.884     c-0.668,0.388-1.522,0.16-1.908-0.506c-0.384-0.655-0.156-1.502,0.512-1.884C35.016,27.814,35.871,28.041,36.257,28.702z      M35.863,25.445c0.387,0.66,0.157,1.508-0.51,1.889c-0.668,0.383-1.523,0.155-1.907-0.506c-0.387-0.66-0.158-1.507,0.51-1.889     C34.625,24.558,35.478,24.785,35.863,25.445z M35.47,22.188c0.386,0.661,0.158,1.508-0.51,1.89     c-0.667,0.382-1.521,0.155-1.906-0.506c-0.385-0.661-0.159-1.507,0.509-1.89C34.231,21.301,35.086,21.527,35.47,22.188z      M33.171,18.426c0.667-0.377,1.522-0.15,1.908,0.506c0.385,0.66,0.154,1.507-0.512,1.889c-0.668,0.382-1.522,0.154-1.906-0.506     C32.275,19.654,32.504,18.807,33.171,18.426z M26.978,36.868c0.668,0.382,0.896,1.229,0.512,1.89     c-0.386,0.66-1.241,0.888-1.907,0.506c-0.669-0.383-0.897-1.229-0.511-1.89S26.31,36.486,26.978,36.868z M24.993,34.246     c0.666,0.377,0.896,1.224,0.511,1.885c-0.387,0.66-1.242,0.887-1.908,0.506c-0.667-0.383-0.896-1.229-0.51-1.89     C23.471,34.086,24.324,33.864,24.993,34.246z M23.006,31.619c0.668,0.382,0.897,1.223,0.51,1.884     c-0.383,0.661-1.239,0.888-1.905,0.506c-0.668-0.382-0.896-1.224-0.512-1.884C21.483,31.464,22.339,31.236,23.006,31.619z      M19.113,29.497c0.386-0.661,1.24-0.888,1.906-0.506c0.669,0.382,0.898,1.229,0.512,1.884c-0.386,0.661-1.24,0.889-1.907,0.506     C18.957,31.004,18.728,30.158,19.113,29.497z M13.93,47.419c-0.772,0-1.396-0.619-1.396-1.384c0-0.758,0.624-1.377,1.396-1.377     c0.769,0,1.396,0.619,1.396,1.377C15.327,46.8,14.699,47.419,13.93,47.419z M17.102,64.123c-0.667,0.382-1.522,0.154-1.908-0.506     c-0.383-0.661-0.157-1.508,0.512-1.884c0.668-0.383,1.521-0.16,1.905,0.5C17.998,62.895,17.769,63.741,17.102,64.123z      M16.978,48.709c-0.771,0-1.398-0.619-1.398-1.377c0-0.765,0.626-1.384,1.398-1.384c0.771,0,1.396,0.619,1.396,1.384     C18.373,48.09,17.749,48.709,16.978,48.709z M20.395,63.73c-0.669,0.382-1.523,0.16-1.907-0.501     c-0.385-0.66-0.156-1.507,0.51-1.889c0.667-0.382,1.521-0.155,1.908,0.506C21.292,62.507,21.063,63.349,20.395,63.73z M20.023,50     c-0.77,0-1.395-0.614-1.395-1.378c0-0.765,0.625-1.384,1.395-1.384c0.772,0,1.398,0.619,1.398,1.384     C21.421,49.386,20.795,50,20.023,50z M23.687,63.349c-0.67,0.377-1.524,0.149-1.908-0.511c-0.385-0.661-0.156-1.502,0.512-1.885     c0.666-0.382,1.521-0.154,1.906,0.506C24.581,62.12,24.354,62.967,23.687,63.349z M23.071,51.296     c-0.772,0-1.396-0.62-1.396-1.384s0.625-1.378,1.396-1.378c0.771,0,1.396,0.614,1.396,1.378S23.842,51.296,23.071,51.296z      M25.071,62.45c-0.386-0.66-0.158-1.507,0.511-1.889c0.667-0.377,1.521-0.15,1.907,0.511c0.384,0.661,0.157,1.502-0.512,1.884     S25.457,63.111,25.071,62.45z M28.291,77.012c-0.385,0.671-1.238,0.888-1.908,0.517c-0.666-0.382-0.895-1.229-0.508-1.89     c0.386-0.66,1.239-0.888,1.907-0.506S28.677,76.361,28.291,77.012z M30.947,75.051c-0.387,0.66-1.239,0.888-1.907,0.506     c-0.668-0.382-0.896-1.219-0.512-1.879c0.385-0.671,1.24-0.888,1.907-0.517C31.103,73.554,31.332,74.39,30.947,75.051z      M33.601,73.089c-0.384,0.661-1.24,0.888-1.908,0.506c-0.666-0.382-0.895-1.229-0.51-1.889c0.387-0.661,1.24-0.889,1.907-0.506     C33.757,71.582,33.986,72.429,33.601,73.089z M36.257,71.128c-0.386,0.66-1.241,0.888-1.908,0.506     c-0.667-0.383-0.896-1.229-0.512-1.89c0.386-0.661,1.24-0.888,1.908-0.506C36.412,69.62,36.641,70.462,36.257,71.128z      M43.105,84.032c-0.771,0-1.396-0.619-1.396-1.384c0-0.764,0.625-1.383,1.396-1.383c0.771,0,1.396,0.619,1.396,1.383     C44.501,83.413,43.876,84.032,43.105,84.032z M44.41,81.018c-0.771,0-1.396-0.619-1.396-1.384c0-0.764,0.625-1.383,1.396-1.383     s1.396,0.619,1.396,1.383C45.806,80.398,45.181,81.018,44.41,81.018z M45.717,78.003c-0.771,0-1.397-0.619-1.397-1.383     c0-0.765,0.626-1.384,1.397-1.384c0.772,0,1.396,0.619,1.396,1.384C47.113,77.384,46.489,78.003,45.717,78.003z M47.023,74.988     c-0.771,0-1.396-0.619-1.396-1.383c0-0.765,0.624-1.373,1.396-1.373c0.77,0,1.396,0.608,1.396,1.373     C48.419,74.369,47.793,74.988,47.023,74.988z M57.789,71.128c-0.387-0.666-0.156-1.508,0.512-1.89s1.521-0.155,1.906,0.506     s0.156,1.507-0.508,1.89C59.027,72.016,58.176,71.788,57.789,71.128z M58.182,74.38c-0.385-0.661-0.156-1.508,0.512-1.89     c0.666-0.372,1.521-0.155,1.908,0.506c0.383,0.661,0.154,1.507-0.514,1.89C59.422,75.268,58.566,75.04,58.182,74.38z      M58.574,77.642c-0.385-0.66-0.154-1.507,0.51-1.889c0.668-0.383,1.525-0.155,1.908,0.506c0.387,0.66,0.156,1.496-0.512,1.889     C59.814,78.52,58.959,78.303,58.574,77.642z M60.875,81.399c-0.67,0.382-1.523,0.155-1.906-0.506     c-0.387-0.66-0.16-1.507,0.508-1.889c0.672-0.383,1.523-0.155,1.906,0.506C61.771,80.171,61.541,81.018,60.875,81.399z      M47.023,70.503c-11.521,0-20.858-9.239-20.858-20.632c0-11.397,9.338-20.637,20.858-20.637c11.52,0,20.858,9.239,20.858,20.637     C67.881,61.264,58.543,70.503,47.023,70.503z M67.068,62.956c-0.67-0.382-0.896-1.223-0.514-1.884     c0.387-0.661,1.24-0.888,1.908-0.511c0.666,0.382,0.895,1.229,0.512,1.889C68.59,63.111,67.732,63.338,67.068,62.956z      M69.053,65.584c-0.668-0.382-0.896-1.229-0.51-1.89c0.385-0.66,1.236-0.888,1.904-0.506c0.672,0.382,0.898,1.229,0.514,1.89     C70.574,65.738,69.721,65.966,69.053,65.584z M71.037,68.211c-0.666-0.382-0.893-1.229-0.51-1.889     c0.385-0.661,1.24-0.889,1.906-0.506c0.67,0.382,0.896,1.229,0.51,1.889C72.561,68.366,71.707,68.588,71.037,68.211z      M74.932,70.333c-0.385,0.66-1.238,0.888-1.906,0.5c-0.67-0.382-0.896-1.223-0.51-1.884c0.385-0.661,1.236-0.888,1.908-0.506     C75.09,68.825,75.318,69.667,74.932,70.333z M74.021,52.586c-0.771,0-1.396-0.619-1.396-1.378c0-0.765,0.625-1.384,1.396-1.384     s1.396,0.619,1.396,1.384C75.418,51.967,74.793,52.586,74.021,52.586z M77.068,53.882c-0.77,0-1.396-0.619-1.396-1.384     c0-0.764,0.627-1.383,1.396-1.383c0.771,0,1.395,0.619,1.395,1.383C78.463,53.263,77.84,53.882,77.068,53.882z M78.34,38.097     c-0.67,0.382-1.523,0.155-1.908-0.506s-0.156-1.502,0.514-1.884c0.666-0.382,1.518-0.16,1.904,0.506     C79.238,36.873,79.006,37.715,78.34,38.097z M80.117,55.172c-0.771,0-1.396-0.619-1.396-1.383s0.625-1.378,1.396-1.378     c0.77,0,1.393,0.614,1.393,1.378S80.887,55.172,80.117,55.172z" fill="url(#SVGID_2_)"/><linearGradient gradientUnits="userSpaceOnUse" id="SVGID_3_" x1="22.2949" x2="65.3969" y1="27.0059" y2="66.8589"><stop offset="0.1525" style="stop-color:#B1B2B3"/><stop offset="0.2355" style="stop-color:#B5B6B7"/><stop offset="0.3152" style="stop-color:#C0C1C1"/><stop offset="0.3935" style="stop-color:#D4D4D4"/><stop offset="0.4705" style="stop-color:#EFEFED"/><stop offset="0.4859" style="stop-color:#F5F5F3"/><stop offset="0.5872" style="stop-color:#EEEFED"/><stop offset="0.7296" style="stop-color:#DCDDDC"/><stop offset="0.7966" style="stop-color:#D1D2D2"/></linearGradient><path d="M47.023,14.032c-20.009,0-36.224,16.043-36.224,35.839c0,19.79,16.215,35.833,36.224,35.833     c20.004,0,36.223-16.043,36.223-35.833C83.246,30.075,67.027,14.032,47.023,14.032z M73.65,36.094     c0.668-0.382,1.523-0.154,1.908,0.506c0.385,0.661,0.158,1.502-0.512,1.885c-0.668,0.382-1.521,0.154-1.906-0.506     C72.754,37.317,72.984,36.477,73.65,36.094z M70.359,36.481c0.668-0.382,1.52-0.155,1.908,0.506     c0.383,0.661,0.156,1.507-0.512,1.89c-0.668,0.376-1.521,0.154-1.904-0.512C69.461,37.71,69.691,36.863,70.359,36.481z      M70.975,48.534c0.771,0,1.395,0.614,1.395,1.378s-0.623,1.384-1.395,1.384s-1.398-0.62-1.398-1.384S70.203,48.534,70.975,48.534     z M68.975,37.374c0.383,0.661,0.154,1.507-0.512,1.89c-0.668,0.382-1.521,0.154-1.908-0.506c-0.383-0.661-0.156-1.508,0.514-1.89     C67.732,36.486,68.59,36.713,68.975,37.374z M65.752,22.808c0.389-0.661,1.24-0.888,1.91-0.506     c0.666,0.382,0.895,1.229,0.512,1.89c-0.389,0.66-1.244,0.887-1.908,0.506C65.598,24.314,65.367,23.469,65.752,22.808z      M63.1,24.774c0.387-0.661,1.238-0.888,1.906-0.506c0.67,0.382,0.896,1.224,0.512,1.884c-0.389,0.66-1.242,0.888-1.908,0.506     C62.941,26.276,62.711,25.436,63.1,24.774z M60.445,26.74c0.383-0.66,1.238-0.887,1.906-0.51c0.668,0.381,0.896,1.229,0.51,1.889     c-0.385,0.66-1.238,0.888-1.906,0.506S60.059,27.396,60.445,26.74z M57.789,28.702c0.387-0.661,1.238-0.888,1.91-0.506     c0.664,0.382,0.893,1.229,0.508,1.884c-0.385,0.666-1.238,0.894-1.906,0.506C57.633,30.209,57.402,29.363,57.789,28.702z      M50.941,15.793c0.768,0,1.395,0.619,1.395,1.383s-0.627,1.379-1.395,1.379c-0.772,0-1.396-0.615-1.396-1.379     S50.168,15.793,50.941,15.793z M49.636,18.807c0.771,0,1.394,0.62,1.394,1.384c0,0.759-0.623,1.384-1.394,1.384     c-0.772,0-1.398-0.625-1.398-1.384C48.238,19.427,48.863,18.807,49.636,18.807z M48.329,21.822c0.771,0,1.396,0.619,1.396,1.383     s-0.625,1.383-1.396,1.383c-0.771,0-1.398-0.619-1.398-1.383S47.558,21.822,48.329,21.822z M47.023,24.836     c0.77,0,1.396,0.619,1.396,1.384c0,0.764-0.626,1.378-1.396,1.378c-0.771,0-1.396-0.614-1.396-1.378     C45.627,25.455,46.251,24.836,47.023,24.836z M36.257,28.702c0.384,0.661,0.155,1.507-0.511,1.884     c-0.668,0.388-1.522,0.16-1.908-0.506c-0.384-0.655-0.156-1.502,0.512-1.884C35.016,27.814,35.871,28.041,36.257,28.702z      M35.863,25.445c0.387,0.66,0.157,1.508-0.51,1.889c-0.668,0.383-1.523,0.155-1.907-0.506c-0.387-0.66-0.158-1.507,0.51-1.889     C34.625,24.558,35.478,24.785,35.863,25.445z M35.47,22.188c0.386,0.661,0.158,1.508-0.51,1.89     c-0.667,0.382-1.521,0.155-1.906-0.506c-0.385-0.661-0.159-1.507,0.509-1.89C34.231,21.301,35.086,21.527,35.47,22.188z      M33.171,18.426c0.667-0.377,1.522-0.15,1.908,0.506c0.385,0.66,0.154,1.507-0.512,1.889c-0.668,0.382-1.522,0.154-1.906-0.506     C32.275,19.654,32.504,18.807,33.171,18.426z M26.978,36.868c0.668,0.382,0.896,1.229,0.512,1.89     c-0.386,0.66-1.241,0.888-1.907,0.506c-0.669-0.383-0.897-1.229-0.511-1.89S26.31,36.486,26.978,36.868z M24.993,34.246     c0.666,0.377,0.896,1.224,0.511,1.885c-0.387,0.66-1.242,0.887-1.908,0.506c-0.667-0.383-0.896-1.229-0.51-1.89     C23.471,34.086,24.324,33.864,24.993,34.246z M23.006,31.619c0.668,0.382,0.897,1.223,0.51,1.884     c-0.383,0.661-1.239,0.888-1.905,0.506c-0.668-0.382-0.896-1.224-0.512-1.884C21.483,31.464,22.339,31.236,23.006,31.619z      M19.113,29.497c0.386-0.661,1.24-0.888,1.906-0.506c0.669,0.382,0.898,1.229,0.512,1.884c-0.386,0.661-1.24,0.889-1.907,0.506     C18.957,31.004,18.728,30.158,19.113,29.497z M13.93,47.419c-0.772,0-1.396-0.619-1.396-1.384c0-0.758,0.624-1.377,1.396-1.377     c0.769,0,1.396,0.619,1.396,1.377C15.327,46.8,14.699,47.419,13.93,47.419z M17.102,64.123c-0.667,0.382-1.522,0.154-1.908-0.506     c-0.383-0.661-0.157-1.508,0.512-1.884c0.668-0.383,1.521-0.16,1.905,0.5C17.998,62.895,17.769,63.741,17.102,64.123z      M16.978,48.709c-0.771,0-1.398-0.619-1.398-1.377c0-0.765,0.626-1.384,1.398-1.384c0.771,0,1.396,0.619,1.396,1.384     C18.373,48.09,17.749,48.709,16.978,48.709z M20.395,63.73c-0.669,0.382-1.523,0.16-1.907-0.501     c-0.385-0.66-0.156-1.507,0.51-1.889c0.667-0.382,1.521-0.155,1.908,0.506C21.292,62.507,21.063,63.349,20.395,63.73z M20.023,50     c-0.77,0-1.395-0.614-1.395-1.378c0-0.765,0.625-1.384,1.395-1.384c0.772,0,1.398,0.619,1.398,1.384     C21.421,49.386,20.795,50,20.023,50z M23.687,63.349c-0.67,0.377-1.524,0.149-1.908-0.511c-0.385-0.661-0.156-1.502,0.512-1.885     c0.666-0.382,1.521-0.154,1.906,0.506C24.581,62.12,24.354,62.967,23.687,63.349z M23.071,51.296     c-0.772,0-1.396-0.62-1.396-1.384s0.625-1.378,1.396-1.378c0.771,0,1.396,0.614,1.396,1.378S23.842,51.296,23.071,51.296z      M25.071,62.45c-0.386-0.66-0.158-1.507,0.511-1.889c0.667-0.377,1.521-0.15,1.907,0.511c0.384,0.661,0.157,1.502-0.512,1.884     S25.457,63.111,25.071,62.45z M28.291,77.012c-0.385,0.671-1.238,0.888-1.908,0.517c-0.666-0.382-0.895-1.229-0.508-1.89     c0.386-0.66,1.239-0.888,1.907-0.506S28.677,76.361,28.291,77.012z M30.947,75.051c-0.387,0.66-1.239,0.888-1.907,0.506     c-0.668-0.382-0.896-1.219-0.512-1.879c0.385-0.671,1.24-0.888,1.907-0.517C31.103,73.554,31.332,74.39,30.947,75.051z      M33.601,73.089c-0.384,0.661-1.24,0.888-1.908,0.506c-0.666-0.382-0.895-1.229-0.51-1.889c0.387-0.661,1.24-0.889,1.907-0.506     C33.757,71.582,33.986,72.429,33.601,73.089z M36.257,71.128c-0.386,0.66-1.241,0.888-1.908,0.506     c-0.667-0.383-0.896-1.229-0.512-1.89c0.386-0.661,1.24-0.888,1.908-0.506C36.412,69.62,36.641,70.462,36.257,71.128z      M43.105,84.032c-0.771,0-1.396-0.619-1.396-1.384c0-0.764,0.625-1.383,1.396-1.383c0.771,0,1.396,0.619,1.396,1.383     C44.501,83.413,43.876,84.032,43.105,84.032z M44.41,81.018c-0.771,0-1.396-0.619-1.396-1.384c0-0.764,0.625-1.383,1.396-1.383     s1.396,0.619,1.396,1.383C45.806,80.398,45.181,81.018,44.41,81.018z M45.717,78.003c-0.771,0-1.397-0.619-1.397-1.383     c0-0.765,0.626-1.384,1.397-1.384c0.772,0,1.396,0.619,1.396,1.384C47.113,77.384,46.489,78.003,45.717,78.003z M47.023,74.988     c-0.771,0-1.396-0.619-1.396-1.383c0-0.765,0.624-1.373,1.396-1.373c0.77,0,1.396,0.608,1.396,1.373     C48.419,74.369,47.793,74.988,47.023,74.988z M57.789,71.128c-0.387-0.666-0.156-1.508,0.512-1.89s1.521-0.155,1.906,0.506     s0.156,1.507-0.508,1.89C59.027,72.016,58.176,71.788,57.789,71.128z M58.182,74.38c-0.385-0.661-0.156-1.508,0.512-1.89     c0.666-0.372,1.521-0.155,1.908,0.506c0.383,0.661,0.154,1.507-0.514,1.89C59.422,75.268,58.566,75.04,58.182,74.38z      M58.574,77.642c-0.385-0.66-0.154-1.507,0.51-1.889c0.668-0.383,1.525-0.155,1.908,0.506c0.387,0.66,0.156,1.496-0.512,1.889     C59.814,78.52,58.959,78.303,58.574,77.642z M60.875,81.399c-0.67,0.382-1.523,0.155-1.906-0.506     c-0.387-0.66-0.16-1.507,0.508-1.889c0.672-0.383,1.523-0.155,1.906,0.506C61.771,80.171,61.541,81.018,60.875,81.399z      M47.023,70.503c-11.521,0-20.858-9.239-20.858-20.632c0-11.397,9.338-20.637,20.858-20.637c11.52,0,20.858,9.239,20.858,20.637     C67.881,61.264,58.543,70.503,47.023,70.503z M67.068,62.956c-0.67-0.382-0.896-1.223-0.514-1.884     c0.387-0.661,1.24-0.888,1.908-0.511c0.666,0.382,0.895,1.229,0.512,1.889C68.59,63.111,67.732,63.338,67.068,62.956z      M69.053,65.584c-0.668-0.382-0.896-1.229-0.51-1.89c0.385-0.66,1.236-0.888,1.904-0.506c0.672,0.382,0.898,1.229,0.514,1.89     C70.574,65.738,69.721,65.966,69.053,65.584z M71.037,68.211c-0.666-0.382-0.893-1.229-0.51-1.889     c0.385-0.661,1.24-0.889,1.906-0.506c0.67,0.382,0.896,1.229,0.51,1.889C72.561,68.366,71.707,68.588,71.037,68.211z      M74.932,70.333c-0.385,0.66-1.238,0.888-1.906,0.5c-0.67-0.382-0.896-1.223-0.51-1.884c0.385-0.661,1.236-0.888,1.908-0.506     C75.09,68.825,75.318,69.667,74.932,70.333z M74.021,52.586c-0.771,0-1.396-0.619-1.396-1.378c0-0.765,0.625-1.384,1.396-1.384     s1.396,0.619,1.396,1.384C75.418,51.967,74.793,52.586,74.021,52.586z M77.068,53.882c-0.77,0-1.396-0.619-1.396-1.384     c0-0.764,0.627-1.383,1.396-1.383c0.771,0,1.395,0.619,1.395,1.383C78.463,53.263,77.84,53.882,77.068,53.882z M78.34,38.097     c-0.67,0.382-1.523,0.155-1.908-0.506s-0.156-1.502,0.514-1.884c0.666-0.382,1.518-0.16,1.904,0.506     C79.238,36.873,79.006,37.715,78.34,38.097z M80.117,55.172c-0.771,0-1.396-0.619-1.396-1.383s0.625-1.378,1.396-1.378     c0.77,0,1.393,0.614,1.393,1.378S80.887,55.172,80.117,55.172z" fill="url(#SVGID_3_)"/><linearGradient gradientUnits="userSpaceOnUse" id="SVGID_4_" x1="9.624" x2="84.4255" y1="49.8687" y2="49.8687"><stop offset="0" style="stop-color:#B1B2B3"/><stop offset="0.1141" style="stop-color:#CBCBCB"/><stop offset="0.25" style="stop-color:#E2E2E1"/><stop offset="0.3772" style="stop-color:#F0F0EE"/><stop offset="0.4859" style="stop-color:#F5F5F3"/><stop offset="0.5872" style="stop-color:#EEEFED"/><stop offset="0.7296" style="stop-color:#DCDDDC"/><stop offset="0.7966" style="stop-color:#D1D2D2"/></linearGradient><path d="M47.023,29.234c-11.521,0-20.858,9.239-20.858,20.637c0,11.393,9.338,20.632,20.858,20.632     c11.52,0,20.858-9.239,20.858-20.632C67.881,38.474,58.543,29.234,47.023,29.234z M47.023,66.415     c-9.237,0-16.724-7.407-16.724-16.544c0-9.142,7.487-16.549,16.724-16.549s16.723,7.407,16.723,16.549     C63.746,59.008,56.26,66.415,47.023,66.415z" fill="url(#SVGID_4_)"/><linearGradient gradientUnits="userSpaceOnUse" id="SVGID_5_" x1="10.8003" x2="83.2448" y1="49.8687" y2="49.8687"><stop offset="0.1525" style="stop-color:#B1B2B3"/><stop offset="0.2355" style="stop-color:#B5B6B7"/><stop offset="0.3152" style="stop-color:#C0C1C1"/><stop offset="0.3935" style="stop-color:#D4D4D4"/><stop offset="0.4705" style="stop-color:#EFEFED"/><stop offset="0.4859" style="stop-color:#F5F5F3"/><stop offset="0.5872" style="stop-color:#EEEFED"/><stop offset="0.7296" style="stop-color:#DCDDDC"/><stop offset="0.7966" style="stop-color:#D1D2D2"/></linearGradient><path d="M47.023,29.234c-11.521,0-20.858,9.239-20.858,20.637c0,11.393,9.338,20.632,20.858,20.632     c11.52,0,20.858-9.239,20.858-20.632C67.881,38.474,58.543,29.234,47.023,29.234z M47.023,66.415     c-9.237,0-16.724-7.407-16.724-16.544c0-9.142,7.487-16.549,16.724-16.549s16.723,7.407,16.723,16.549     C63.746,59.008,56.26,66.415,47.023,66.415z" fill="url(#SVGID_5_)"/><linearGradient gradientUnits="userSpaceOnUse" id="SVGID_6_" x1="32.7637" x2="61.3138" y1="32.9092" y2="66.8666"><stop offset="0.0056" style="stop-color:#D3D4D3"/><stop offset="0.2079" style="stop-color:#D0D1D1"/><stop offset="0.4045" style="stop-color:#C1C3C3"/><stop offset="0.6461" style="stop-color:#F5F5F3"/><stop offset="0.7001" style="stop-color:#EEEFED"/><stop offset="0.7762" style="stop-color:#DCDCDB"/><stop offset="0.8655" style="stop-color:#BEBFBE"/><stop offset="0.964" style="stop-color:#949696"/><stop offset="1" style="stop-color:#838586"/></linearGradient><path d="M47.023,29.234c-11.521,0-20.858,9.239-20.858,20.637c0,11.393,9.338,20.632,20.858,20.632     c11.52,0,20.858-9.239,20.858-20.632C67.881,38.474,58.543,29.234,47.023,29.234z M47.023,66.415     c-9.237,0-16.724-7.407-16.724-16.544c0-9.142,7.487-16.549,16.724-16.549s16.723,7.407,16.723,16.549     C63.746,59.008,56.26,66.415,47.023,66.415z" fill="url(#SVGID_6_)"/><linearGradient gradientUnits="userSpaceOnUse" id="SVGID_7_" x1="9.6187" x2="84.4235" y1="49.8687" y2="49.8687"><stop offset="0" style="stop-color:#B1B2B3"/><stop offset="0.1141" style="stop-color:#CBCBCB"/><stop offset="0.25" style="stop-color:#E2E2E1"/><stop offset="0.3772" style="stop-color:#F0F0EE"/><stop offset="0.4859" style="stop-color:#F5F5F3"/><stop offset="0.5872" style="stop-color:#EEEFED"/><stop offset="0.7296" style="stop-color:#DCDDDC"/><stop offset="0.7966" style="stop-color:#D1D2D2"/></linearGradient><path d="M47.023,33.322c-9.237,0-16.724,7.407-16.724,16.549c0,9.137,7.487,16.544,16.724,16.544     s16.723-7.407,16.723-16.544C63.746,40.729,56.26,33.322,47.023,33.322z M55.025,38.907c0.852-0.841,2.227-0.841,3.08,0     c0.85,0.841,0.85,2.204,0,3.046c-0.854,0.836-2.229,0.836-3.08,0C54.176,41.111,54.176,39.748,55.025,38.907z M47.023,34.365     c1.202,0,2.175,0.965,2.175,2.152s-0.974,2.152-2.175,2.152s-2.176-0.965-2.176-2.152S45.821,34.365,47.023,34.365z      M35.941,38.907c0.849-0.841,2.227-0.841,3.078,0c0.849,0.841,0.849,2.204,0,3.046c-0.851,0.836-2.229,0.836-3.078,0     C35.09,41.111,35.09,39.748,35.941,38.907z M33.529,52.019c-1.203,0-2.179-0.96-2.179-2.147c0-1.192,0.976-2.158,2.179-2.158     c1.2,0,2.174,0.966,2.174,2.158C35.703,51.059,34.729,52.019,33.529,52.019z M39.019,60.835c-0.851,0.836-2.229,0.836-3.078,0     c-0.851-0.847-0.851-2.209,0-3.046c0.849-0.841,2.227-0.841,3.078,0C39.868,58.626,39.868,59.988,39.019,60.835z M47.023,65.372     c-1.202,0-2.176-0.965-2.176-2.152s0.975-2.152,2.176-2.152s2.175,0.965,2.175,2.152S48.225,65.372,47.023,65.372z      M47.023,59.735c-5.511,0-9.976-4.419-9.976-9.864c0-5.456,4.465-9.869,9.976-9.869c5.508,0,9.975,4.413,9.975,9.869     C56.998,55.316,52.531,59.735,47.023,59.735z M58.105,60.835c-0.854,0.836-2.229,0.836-3.08,0c-0.85-0.847-0.85-2.209,0-3.046     c0.852-0.841,2.227-0.841,3.08,0C58.955,58.626,58.955,59.988,58.105,60.835z M60.518,52.019c-1.203,0-2.176-0.96-2.176-2.147     c0-1.192,0.973-2.158,2.176-2.158c1.201,0,2.176,0.966,2.176,2.158C62.693,51.059,61.719,52.019,60.518,52.019z" fill="url(#SVGID_7_)"/><linearGradient gradientUnits="userSpaceOnUse" id="SVGID_8_" x1="10.7959" x2="83.246" y1="49.8687" y2="49.8687"><stop offset="0.1525" style="stop-color:#B1B2B3"/><stop offset="0.2355" style="stop-color:#B5B6B7"/><stop offset="0.3152" style="stop-color:#C0C1C1"/><stop offset="0.3935" style="stop-color:#D4D4D4"/><stop offset="0.4705" style="stop-color:#EFEFED"/><stop offset="0.4859" style="stop-color:#F5F5F3"/><stop offset="0.5872" style="stop-color:#EEEFED"/><stop offset="0.7296" style="stop-color:#DCDDDC"/><stop offset="0.7966" style="stop-color:#D1D2D2"/></linearGradient><path d="M47.023,33.322c-9.237,0-16.724,7.407-16.724,16.549c0,9.137,7.487,16.544,16.724,16.544     s16.723-7.407,16.723-16.544C63.746,40.729,56.26,33.322,47.023,33.322z M55.025,38.907c0.852-0.841,2.227-0.841,3.08,0     c0.85,0.841,0.85,2.204,0,3.046c-0.854,0.836-2.229,0.836-3.08,0C54.176,41.111,54.176,39.748,55.025,38.907z M47.023,34.365     c1.202,0,2.175,0.965,2.175,2.152s-0.974,2.152-2.175,2.152s-2.176-0.965-2.176-2.152S45.821,34.365,47.023,34.365z      M35.941,38.907c0.849-0.841,2.227-0.841,3.078,0c0.849,0.841,0.849,2.204,0,3.046c-0.851,0.836-2.229,0.836-3.078,0     C35.09,41.111,35.09,39.748,35.941,38.907z M33.529,52.019c-1.203,0-2.179-0.96-2.179-2.147c0-1.192,0.976-2.158,2.179-2.158     c1.2,0,2.174,0.966,2.174,2.158C35.703,51.059,34.729,52.019,33.529,52.019z M39.019,60.835c-0.851,0.836-2.229,0.836-3.078,0     c-0.851-0.847-0.851-2.209,0-3.046c0.849-0.841,2.227-0.841,3.078,0C39.868,58.626,39.868,59.988,39.019,60.835z M47.023,65.372     c-1.202,0-2.176-0.965-2.176-2.152s0.975-2.152,2.176-2.152s2.175,0.965,2.175,2.152S48.225,65.372,47.023,65.372z      M47.023,59.735c-5.511,0-9.976-4.419-9.976-9.864c0-5.456,4.465-9.869,9.976-9.869c5.508,0,9.975,4.413,9.975,9.869     C56.998,55.316,52.531,59.735,47.023,59.735z M58.105,60.835c-0.854,0.836-2.229,0.836-3.08,0c-0.85-0.847-0.85-2.209,0-3.046     c0.852-0.841,2.227-0.841,3.08,0C58.955,58.626,58.955,59.988,58.105,60.835z M60.518,52.019c-1.203,0-2.176-0.96-2.176-2.147     c0-1.192,0.973-2.158,2.176-2.158c1.201,0,2.176,0.966,2.176,2.158C62.693,51.059,61.719,52.019,60.518,52.019z" fill="url(#SVGID_8_)"/><linearGradient gradientUnits="userSpaceOnUse" id="SVGID_9_" x1="26.1616" x2="67.8804" y1="49.8687" y2="49.8687"><stop offset="0.1525" style="stop-color:#B1B2B3"/><stop offset="0.2355" style="stop-color:#B5B6B7"/><stop offset="0.3152" style="stop-color:#C0C1C1"/><stop offset="0.3935" style="stop-color:#D4D4D4"/><stop offset="0.4705" style="stop-color:#EFEFED"/><stop offset="0.4859" style="stop-color:#F5F5F3"/><stop offset="0.5872" style="stop-color:#EEEFED"/><stop offset="0.7296" style="stop-color:#DCDDDC"/><stop offset="0.7966" style="stop-color:#D1D2D2"/></linearGradient><path d="M47.023,33.322c-9.237,0-16.724,7.407-16.724,16.549c0,9.137,7.487,16.544,16.724,16.544     s16.723-7.407,16.723-16.544C63.746,40.729,56.26,33.322,47.023,33.322z M55.025,38.907c0.852-0.841,2.227-0.841,3.08,0     c0.85,0.841,0.85,2.204,0,3.046c-0.854,0.836-2.229,0.836-3.08,0C54.176,41.111,54.176,39.748,55.025,38.907z M47.023,34.365     c1.202,0,2.175,0.965,2.175,2.152s-0.974,2.152-2.175,2.152s-2.176-0.965-2.176-2.152S45.821,34.365,47.023,34.365z      M35.941,38.907c0.849-0.841,2.227-0.841,3.078,0c0.849,0.841,0.849,2.204,0,3.046c-0.851,0.836-2.229,0.836-3.078,0     C35.09,41.111,35.09,39.748,35.941,38.907z M33.529,52.019c-1.203,0-2.179-0.96-2.179-2.147c0-1.192,0.976-2.158,2.179-2.158     c1.2,0,2.174,0.966,2.174,2.158C35.703,51.059,34.729,52.019,33.529,52.019z M39.019,60.835c-0.851,0.836-2.229,0.836-3.078,0     c-0.851-0.847-0.851-2.209,0-3.046c0.849-0.841,2.227-0.841,3.078,0C39.868,58.626,39.868,59.988,39.019,60.835z M47.023,65.372     c-1.202,0-2.176-0.965-2.176-2.152s0.975-2.152,2.176-2.152s2.175,0.965,2.175,2.152S48.225,65.372,47.023,65.372z      M47.023,59.735c-5.511,0-9.976-4.419-9.976-9.864c0-5.456,4.465-9.869,9.976-9.869c5.508,0,9.975,4.413,9.975,9.869     C56.998,55.316,52.531,59.735,47.023,59.735z M58.105,60.835c-0.854,0.836-2.229,0.836-3.08,0c-0.85-0.847-0.85-2.209,0-3.046     c0.852-0.841,2.227-0.841,3.08,0C58.955,58.626,58.955,59.988,58.105,60.835z M60.518,52.019c-1.203,0-2.176-0.96-2.176-2.147     c0-1.192,0.973-2.158,2.176-2.158c1.201,0,2.176,0.966,2.176,2.158C62.693,51.059,61.719,52.019,60.518,52.019z" fill="url(#SVGID_9_)"/><linearGradient gradientUnits="userSpaceOnUse" id="SVGID_10_" x1="35.0283" x2="58.8391" y1="37.1108" y2="62.4369"><stop offset="0.1525" style="stop-color:#B1B2B3"/><stop offset="0.2355" style="stop-color:#B5B6B7"/><stop offset="0.3152" style="stop-color:#C0C1C1"/><stop offset="0.3935" style="stop-color:#D4D4D4"/><stop offset="0.4705" style="stop-color:#EFEFED"/><stop offset="0.4859" style="stop-color:#F5F5F3"/><stop offset="0.5872" style="stop-color:#EEEFED"/><stop offset="0.7296" style="stop-color:#DCDDDC"/><stop offset="0.7966" style="stop-color:#D1D2D2"/></linearGradient><path d="M47.023,33.322c-9.237,0-16.724,7.407-16.724,16.549c0,9.137,7.487,16.544,16.724,16.544     s16.723-7.407,16.723-16.544C63.746,40.729,56.26,33.322,47.023,33.322z M55.025,38.907c0.852-0.841,2.227-0.841,3.08,0     c0.85,0.841,0.85,2.204,0,3.046c-0.854,0.836-2.229,0.836-3.08,0C54.176,41.111,54.176,39.748,55.025,38.907z M47.023,34.365     c1.202,0,2.175,0.965,2.175,2.152s-0.974,2.152-2.175,2.152s-2.176-0.965-2.176-2.152S45.821,34.365,47.023,34.365z      M35.941,38.907c0.849-0.841,2.227-0.841,3.078,0c0.849,0.841,0.849,2.204,0,3.046c-0.851,0.836-2.229,0.836-3.078,0     C35.09,41.111,35.09,39.748,35.941,38.907z M33.529,52.019c-1.203,0-2.179-0.96-2.179-2.147c0-1.192,0.976-2.158,2.179-2.158     c1.2,0,2.174,0.966,2.174,2.158C35.703,51.059,34.729,52.019,33.529,52.019z M39.019,60.835c-0.851,0.836-2.229,0.836-3.078,0     c-0.851-0.847-0.851-2.209,0-3.046c0.849-0.841,2.227-0.841,3.078,0C39.868,58.626,39.868,59.988,39.019,60.835z M47.023,65.372     c-1.202,0-2.176-0.965-2.176-2.152s0.975-2.152,2.176-2.152s2.175,0.965,2.175,2.152S48.225,65.372,47.023,65.372z      M47.023,59.735c-5.511,0-9.976-4.419-9.976-9.864c0-5.456,4.465-9.869,9.976-9.869c5.508,0,9.975,4.413,9.975,9.869     C56.998,55.316,52.531,59.735,47.023,59.735z M58.105,60.835c-0.854,0.836-2.229,0.836-3.08,0c-0.85-0.847-0.85-2.209,0-3.046     c0.852-0.841,2.227-0.841,3.08,0C58.955,58.626,58.955,59.988,58.105,60.835z M60.518,52.019c-1.203,0-2.176-0.96-2.176-2.147     c0-1.192,0.973-2.158,2.176-2.158c1.201,0,2.176,0.966,2.176,2.158C62.693,51.059,61.719,52.019,60.518,52.019z" fill="url(#SVGID_10_)"/><linearGradient gradientUnits="userSpaceOnUse" id="SVGID_11_" x1="9.6201" x2="84.427" y1="49.8687" y2="49.8687"><stop offset="0" style="stop-color:#B1B2B3"/><stop offset="0.1141" style="stop-color:#CBCBCB"/><stop offset="0.25" style="stop-color:#E2E2E1"/><stop offset="0.3772" style="stop-color:#F0F0EE"/><stop offset="0.4859" style="stop-color:#F5F5F3"/><stop offset="0.5872" style="stop-color:#EEEFED"/><stop offset="0.7296" style="stop-color:#DCDDDC"/><stop offset="0.7966" style="stop-color:#D1D2D2"/></linearGradient><path d="M47.023,40.002c-5.511,0-9.976,4.413-9.976,9.869c0,5.445,4.465,9.864,9.976,9.864     c5.508,0,9.975-4.419,9.975-9.864C56.998,44.415,52.531,40.002,47.023,40.002z M47.023,57.583c-4.308,0-7.799-3.453-7.799-7.712     c0-4.264,3.491-7.717,7.799-7.717c4.307,0,7.797,3.453,7.797,7.717C54.82,54.13,51.33,57.583,47.023,57.583z" fill="url(#SVGID_11_)"/><linearGradient gradientUnits="userSpaceOnUse" id="SVGID_12_" x1="10.7974" x2="83.248" y1="49.8687" y2="49.8687"><stop offset="0.1525" style="stop-color:#B1B2B3"/><stop offset="0.2355" style="stop-color:#B5B6B7"/><stop offset="0.3152" style="stop-color:#C0C1C1"/><stop offset="0.3935" style="stop-color:#D4D4D4"/><stop offset="0.4705" style="stop-color:#EFEFED"/><stop offset="0.4859" style="stop-color:#F5F5F3"/><stop offset="0.5872" style="stop-color:#EEEFED"/><stop offset="0.7296" style="stop-color:#DCDDDC"/><stop offset="0.7966" style="stop-color:#D1D2D2"/></linearGradient><path d="M47.023,40.002c-5.511,0-9.976,4.413-9.976,9.869c0,5.445,4.465,9.864,9.976,9.864     c5.508,0,9.975-4.419,9.975-9.864C56.998,44.415,52.531,40.002,47.023,40.002z M47.023,57.583c-4.308,0-7.799-3.453-7.799-7.712     c0-4.264,3.491-7.717,7.799-7.717c4.307,0,7.797,3.453,7.797,7.717C54.82,54.13,51.33,57.583,47.023,57.583z" fill="url(#SVGID_12_)"/><linearGradient gradientUnits="userSpaceOnUse" id="SVGID_13_" x1="26.1636" x2="67.8835" y1="49.8687" y2="49.8687"><stop offset="0.1525" style="stop-color:#B1B2B3"/><stop offset="0.2355" style="stop-color:#B5B6B7"/><stop offset="0.3152" style="stop-color:#C0C1C1"/><stop offset="0.3935" style="stop-color:#D4D4D4"/><stop offset="0.4705" style="stop-color:#EFEFED"/><stop offset="0.4859" style="stop-color:#F5F5F3"/><stop offset="0.5872" style="stop-color:#EEEFED"/><stop offset="0.7296" style="stop-color:#DCDDDC"/><stop offset="0.7966" style="stop-color:#D1D2D2"/></linearGradient><path d="M47.023,40.002c-5.511,0-9.976,4.413-9.976,9.869c0,5.445,4.465,9.864,9.976,9.864     c5.508,0,9.975-4.419,9.975-9.864C56.998,44.415,52.531,40.002,47.023,40.002z M47.023,57.583c-4.308,0-7.799-3.453-7.799-7.712     c0-4.264,3.491-7.717,7.799-7.717c4.307,0,7.797,3.453,7.797,7.717C54.82,54.13,51.33,57.583,47.023,57.583z" fill="url(#SVGID_13_)"/><linearGradient gradientUnits="userSpaceOnUse" id="SVGID_14_" x1="30.2993" x2="63.7475" y1="49.8687" y2="49.8687"><stop offset="0.1525" style="stop-color:#B1B2B3"/><stop offset="0.2355" style="stop-color:#B5B6B7"/><stop offset="0.3152" style="stop-color:#C0C1C1"/><stop offset="0.3935" style="stop-color:#D4D4D4"/><stop offset="0.4705" style="stop-color:#EFEFED"/><stop offset="0.4859" style="stop-color:#F5F5F3"/><stop offset="0.5872" style="stop-color:#EEEFED"/><stop offset="0.7296" style="stop-color:#DCDDDC"/><stop offset="0.7966" style="stop-color:#D1D2D2"/></linearGradient><path d="M47.023,40.002c-5.511,0-9.976,4.413-9.976,9.869c0,5.445,4.465,9.864,9.976,9.864     c5.508,0,9.975-4.419,9.975-9.864C56.998,44.415,52.531,40.002,47.023,40.002z M47.023,57.583c-4.308,0-7.799-3.453-7.799-7.712     c0-4.264,3.491-7.717,7.799-7.717c4.307,0,7.797,3.453,7.797,7.717C54.82,54.13,51.33,57.583,47.023,57.583z" fill="url(#SVGID_14_)"/><linearGradient gradientUnits="userSpaceOnUse" id="SVGID_15_" x1="37.0469" x2="56.998" y1="49.8687" y2="49.8687"><stop offset="0.1525" style="stop-color:#B1B2B3"/><stop offset="0.2355" style="stop-color:#B5B6B7"/><stop offset="0.3152" style="stop-color:#C0C1C1"/><stop offset="0.3935" style="stop-color:#D4D4D4"/><stop offset="0.4705" style="stop-color:#EFEFED"/><stop offset="0.4859" style="stop-color:#F5F5F3"/><stop offset="0.5872" style="stop-color:#EEEFED"/><stop offset="0.7296" style="stop-color:#DCDDDC"/><stop offset="0.7966" style="stop-color:#D1D2D2"/></linearGradient><path d="M47.023,40.002c-5.511,0-9.976,4.413-9.976,9.869c0,5.445,4.465,9.864,9.976,9.864     c5.508,0,9.975-4.419,9.975-9.864C56.998,44.415,52.531,40.002,47.023,40.002z M47.023,57.583c-4.308,0-7.799-3.453-7.799-7.712     c0-4.264,3.491-7.717,7.799-7.717c4.307,0,7.797,3.453,7.797,7.717C54.82,54.13,51.33,57.583,47.023,57.583z" fill="url(#SVGID_15_)"/></g><linearGradient gradientUnits="userSpaceOnUse" id="SVGID_16_" x1="62.9258" x2="87.8769" y1="49.8687" y2="49.8687"><stop offset="0" style="stop-color:#231F20"/><stop offset="0.0868" style="stop-color:#2C2829"/><stop offset="0.2296" style="stop-color:#434142"/><stop offset="0.4097" style="stop-color:#68696A"/><stop offset="0.5225" style="stop-color:#838587"/><stop offset="0.5987" style="stop-color:#6F7072"/><stop offset="0.7787" style="stop-color:#464446"/><stop offset="0.9185" style="stop-color:#2D292A"/><stop offset="1" style="stop-color:#231F20"/></linearGradient><path d="M85.148,49.871c0,6.174-10.855,11.181-16.881,11.181c-6.023,0-0.438-5.007-0.438-11.181    c0-6.179-5.586-11.186,0.438-11.186C74.293,38.686,85.148,43.692,85.148,49.871z" fill="url(#SVGID_16_)"/><g><linearGradient gradientUnits="userSpaceOnUse" id="SVGID_17_" x1="76.0557" x2="78.003" y1="23.6099" y2="74.8283"><stop offset="0" style="stop-color:#8D8F91"/><stop offset="0.1464" style="stop-color:#89898F"/><stop offset="0.1685" style="stop-color:#88888E"/><stop offset="0.2098" style="stop-color:#85858B"/><stop offset="0.2395" style="stop-color:#7C7D83"/><stop offset="0.2655" style="stop-color:#6C6E75"/><stop offset="0.2893" style="stop-color:#565A61"/><stop offset="0.3034" style="stop-color:#454A51"/><stop offset="0.6517" style="stop-color:#BDBFC1"/><stop offset="0.7841" style="stop-color:#A0A2A4"/><stop offset="0.9151" style="stop-color:#8B8D8F"/><stop offset="1" style="stop-color:#838587"/></linearGradient><path d="M80.725,28.279c-1.947-5.523-4.635-4.92-7.609-4.92c-2.971,0-5.66-0.604-7.607,4.92     c-1.949,5.528,7.336,13.162,7.336,21.592s-9.285,16.063-7.336,21.587c1.947,5.523,4.637,4.924,7.607,4.924     c2.975,0,5.662,0.6,7.609-4.924s8.896-13.157,8.896-21.587S82.672,33.808,80.725,28.279z M77.529,61.542     c-1.496,2.565-2.908,4.991-3.795,7.505c-0.002,0.006-0.004,0.006-0.006,0.016c-0.279-0.005-0.613-0.01-0.613-0.01     s-0.119,0-0.178,0c0.475-1.095,1.389-2.705,2.053-3.872c2.344-4.113,5.256-9.239,5.256-15.31c0-6.076-2.912-11.196-5.256-15.315     c-0.664-1.167-1.58-2.776-2.053-3.876c0.059,0,0.178,0.005,0.178,0.005s0.334-0.005,0.613-0.011     c0.002,0.006,0.004,0.011,0.006,0.016c0.887,2.514,2.299,4.939,3.795,7.506c2.195,3.773,4.689,8.047,4.689,11.676     S79.725,57.769,77.529,61.542z" fill="url(#SVGID_17_)"/><linearGradient gradientUnits="userSpaceOnUse" id="SVGID_18_" x1="79.5693" x2="81.4495" y1="24.4141" y2="73.8676"><stop offset="0.0056" style="stop-color:#7A7A80"/><stop offset="0.1289" style="stop-color:#77777D"/><stop offset="0.2174" style="stop-color:#6E6F75"/><stop offset="0.295" style="stop-color:#5E6066"/><stop offset="0.366" style="stop-color:#484B52"/><stop offset="0.3989" style="stop-color:#3B3F46"/><stop offset="0.6573" style="stop-color:#A2A4A7"/><stop offset="0.6716" style="stop-color:#999B9E"/><stop offset="0.7087" style="stop-color:#898B8D"/><stop offset="0.755" style="stop-color:#7D7F82"/><stop offset="0.8199" style="stop-color:#77797B"/><stop offset="1" style="stop-color:#757779"/></linearGradient><path d="M80.184,28.98c-1.789-5.078-4.229-4.805-6.934-4.764c2.006,0.098,3.797,0.8,5.191,4.764     c1.885,5.344,8.605,12.729,8.605,20.891c0,8.155-6.721,15.542-8.605,20.885c-1.395,3.964-3.186,4.666-5.191,4.77     c2.705,0.041,5.145,0.31,6.934-4.77c1.885-5.343,8.605-12.729,8.605-20.885C88.789,41.71,82.068,34.324,80.184,28.98z" fill="url(#SVGID_18_)"/><linearGradient gradientUnits="userSpaceOnUse" id="SVGID_19_" x1="62.7109" x2="74.0877" y1="49.8701" y2="49.8701"><stop offset="0" style="stop-color:#231F20"/><stop offset="0.0607" style="stop-color:#2C2829"/><stop offset="0.1606" style="stop-color:#444142"/><stop offset="0.2873" style="stop-color:#6B696B"/><stop offset="0.4344" style="stop-color:#A1A0A2"/><stop offset="0.5225" style="stop-color:#C4C5C7"/><stop offset="0.5741" style="stop-color:#AEAEB0"/><stop offset="0.7217" style="stop-color:#737172"/><stop offset="0.847" style="stop-color:#474546"/><stop offset="0.9437" style="stop-color:#2D292A"/><stop offset="1" style="stop-color:#231F20"/></linearGradient><path d="M65.508,71.458c-1.949-5.523,7.336-13.157,7.336-21.587s-9.285-16.063-7.336-21.592     c1.475-4.182,3.377-4.853,5.502-4.93c-2.652-0.052-5.037-0.093-6.809,4.93c-1.947,5.528,7.338,13.162,7.338,21.592     s-9.285,16.063-7.338,21.587c1.771,5.018,4.156,4.976,6.809,4.935C68.885,76.31,66.982,75.639,65.508,71.458z" fill="url(#SVGID_19_)"/></g></g></g></svg>