<?xml version="1.0" encoding="UTF-8"?>
<svg width="950px" height="950px" viewBox="0 0 950 950" version="1.1" xmlns="http://www.w3.org/2000/svg" xmlns:xlink="http://www.w3.org/1999/xlink">
    <!-- Generator: Sketch 41 (35326) - http://www.bohemiancoding.com/sketch -->
    <title>circle</title>
    <desc>Created with Sketch.</desc>
    <defs></defs>
    <g id="Page-1" stroke="none" stroke-width="1" fill="none" fill-rule="evenodd">
        <g id="circle" fill="#0080C5">
            <g id="Group">
                <path d="M475,950 C737.335,950 950,737.335 950,475 C950,212.665 737.335,0 475,0 C212.665,0 0,212.665 0,475 C0,737.335 212.665,950 475,950 Z M191.848,191.848 C228.616,155.079 271.438,126.209 319.124,106.039 C368.507,85.152 420.951,74.562 475,74.562 C529.049,74.562 581.493,85.153 630.876,106.04 C678.563,126.21 721.385,155.08 758.152,191.849 C794.921,228.617 823.791,271.439 843.961,319.125 C864.848,368.508 875.44,420.952 875.44,475.001 C875.44,529.05 864.848,581.494 843.961,630.877 C823.791,678.565 794.921,721.386 758.152,758.153 C721.383,794.922 678.562,823.792 630.876,843.962 C581.493,864.848 529.049,875.438 475,875.438 C420.951,875.438 368.507,864.847 319.124,843.96 C271.437,823.79 228.615,794.92 191.848,758.151 C155.079,721.382 126.209,678.56 106.039,630.875 C85.152,581.493 74.562,529.049 74.562,475 C74.562,420.951 85.153,368.507 106.04,319.124 C126.209,271.438 155.079,228.615 191.848,191.848 Z" id="Shape"></path>
                <path d="M475,830.438 C569.941,830.438 659.199,793.466 726.333,726.334 C793.467,659.202 830.438,569.941 830.438,475 C830.438,380.059 793.466,290.801 726.334,223.667 C659.202,156.533 569.941,119.562 475,119.562 C380.059,119.562 290.801,156.534 223.667,223.667 C156.533,290.8 119.562,380.059 119.562,475 C119.562,569.941 156.534,659.199 223.667,726.333 C290.8,793.467 380.059,830.438 475,830.438 Z M581.413,724.102 C581.413,729.901 576.713,734.6 570.915,734.6 L379.085,734.6 C373.287,734.6 368.587,729.901 368.587,724.102 L368.587,712.35 C368.587,706.552 373.287,701.852 379.085,701.852 L379.297,701.852 C385.095,701.852 389.795,697.153 389.795,691.354 L389.795,470.02 C389.795,464.222 394.495,459.523 400.293,459.523 L549.708,459.523 C555.506,459.523 560.206,464.222 560.206,470.02 L560.206,691.354 C560.206,697.153 564.906,701.852 570.704,701.852 L570.916,701.852 C576.714,701.852 581.414,706.552 581.414,712.35 L581.413,724.102 L581.413,724.102 Z M295.016,268.354 C295.016,261.451 300.614,255.854 307.516,255.854 C314.419,255.854 320.016,261.451 320.016,268.354 L320.016,333.048 L379.007,333.048 L379.007,306.951 C379.007,300.048 384.604,294.451 391.507,294.451 C398.41,294.451 404.007,300.048 404.007,306.951 L404.007,333.048 L462.5,333.048 L462.5,268.354 C462.5,261.451 468.097,255.854 475,255.854 C481.903,255.854 487.5,261.451 487.5,268.354 L487.5,333.048 L545.993,333.048 L545.993,306.951 C545.993,300.048 551.59,294.451 558.493,294.451 C565.396,294.451 570.993,300.048 570.993,306.951 L570.993,333.048 L629.984,333.048 L629.984,268.354 C629.984,261.451 635.581,255.854 642.484,255.854 C649.386,255.854 654.984,261.451 654.984,268.354 L654.984,345.548 C654.984,352.451 649.386,358.048 642.484,358.048 L558.493,358.048 L475,358.048 L391.507,358.048 L307.516,358.048 C300.614,358.048 295.016,352.451 295.016,345.548 L295.016,268.354 L295.016,268.354 Z" id="Shape"></path>
                <path d="M526.932,483.522 L423.068,483.522 C418.654,483.522 415.076,487.099 415.076,491.513 L415.076,546.81 C415.076,551.224 418.654,554.802 423.068,554.802 L526.93,554.802 C531.344,554.802 534.922,551.224 534.922,546.81 L534.922,491.513 C534.924,487.101 531.346,483.522 526.932,483.522 Z" id="Shape"></path>
            </g>
        </g>
    </g>
</svg>