<?xml version="1.0" encoding="UTF-8"?>
<svg width="938px" height="608px" viewBox="0 0 938 608" version="1.1" xmlns="http://www.w3.org/2000/svg" xmlns:xlink="http://www.w3.org/1999/xlink">
    <!-- Generator: Sketch 41 (35326) - http://www.bohemiancoding.com/sketch -->
    <title>power</title>
    <desc>Created with Sketch.</desc>
    <defs></defs>
    <g id="Page-1" stroke="none" stroke-width="1" fill="none" fill-rule="evenodd">
        <g id="power" fill="#0080C5">
            <g id="Group">
                <path d="M50.792,582.965 C50.792,596.38 61.667,607.255 75.082,607.255 L862.918,607.255 C876.333,607.255 887.208,596.38 887.208,582.965 L887.208,174.605 L50.792,174.605 L50.792,582.965 Z M649.792,311.871 C649.792,305.452 654.995,300.249 661.414,300.249 L773.512,300.249 C779.931,300.249 785.134,305.452 785.134,311.871 L785.134,339.411 C785.134,345.83 779.931,351.033 773.512,351.033 L661.414,351.033 C654.995,351.033 649.792,345.83 649.792,339.411 L649.792,311.871 Z M152.866,311.295 C152.866,305.204 157.804,300.266 163.895,300.266 L200.659,300.266 L200.659,263.466 C200.659,257.375 205.597,252.438 211.688,252.438 L240.413,252.438 C246.504,252.438 251.442,257.376 251.442,263.466 L251.442,300.266 L288.206,300.266 C294.297,300.266 299.235,305.204 299.235,311.295 L299.235,340.022 C299.235,346.113 294.297,351.05 288.206,351.05 L251.442,351.05 L251.442,387.815 C251.442,393.906 246.504,398.843 240.413,398.843 L211.688,398.843 C205.597,398.843 200.659,393.905 200.659,387.815 L200.659,351.05 L163.895,351.05 C157.804,351.05 152.866,346.112 152.866,340.022 L152.866,311.295 L152.866,311.295 Z" id="Shape"></path>
                <path d="M915.285,149.605 C927.83,149.605 938,139.435 938,126.89 L938,88.726 C938,76.181 927.83,66.011 915.285,66.011 L788.537,66.011 L788.537,23.459 C788.537,10.914 778.367,0.744 765.822,0.744 L667.992,0.744 C655.447,0.744 645.277,10.914 645.277,23.459 L645.277,66.011 L301.611,66.011 L301.611,23.459 C301.611,10.914 291.441,0.744 278.896,0.744 L181.066,0.744 C168.521,0.744 158.351,10.914 158.351,23.459 L158.351,66.011 L22.715,66.011 C10.17,66.01 0,76.181 0,88.727 L0,126.892 C0,139.437 10.17,149.607 22.715,149.607 L50.791,149.607 L887.208,149.607 L915.285,149.605 L915.285,149.605 Z" id="Shape"></path>
            </g>
        </g>
    </g>
</svg>