<?xml version="1.0" encoding="UTF-8"?>
<svg width="90px" height="56px" viewBox="0 0 90 56" version="1.1" xmlns="http://www.w3.org/2000/svg" xmlns:xlink="http://www.w3.org/1999/xlink">
    <!-- Generator: Sketch 41 (35326) - http://www.bohemiancoding.com/sketch -->
    <title>shape</title>
    <desc>Created with Sketch.</desc>
    <defs></defs>
    <g id="Page-1" stroke="none" stroke-width="1" fill="none" fill-rule="evenodd">
        <g id="shape" fill="#0080C5">
            <g id="Group">
                <path d="M88.461,20.406 L86.492,20.406 C85.678,20.406 85.013,21.069 85.013,21.883 L85.013,47.538 C85.013,48.352 85.675,49.017 86.492,49.017 L88.461,49.017 C89.274,49.017 89.938,48.353 89.938,47.538 L89.938,21.882 C89.938,21.069 89.275,20.406 88.461,20.406 Z" id="Shape"></path>
                <path d="M1.477,19.157 C0.664,19.157 0,19.819 0,20.634 L0,48.798 C0,49.611 0.663,50.276 1.477,50.276 L5.492,50.276 C6.306,50.276 6.969,49.613 6.969,48.798 L6.969,20.642 C6.969,19.829 6.307,19.165 5.492,19.165 L1.477,19.165 L1.477,19.157 Z" id="Shape"></path>
                <path d="M57.617,54.781 C60.911,53.503 64.185,52.186 67.472,50.909 C67.765,50.796 68.106,50.757 68.419,50.749 C70.851,50.739 73.283,50.739 75.707,50.739 C78.226,50.739 79.845,49.119 79.845,46.573 L79.845,38.242 C79.845,37.645 80.326,37.173 80.914,37.173 L81.964,37.146 C82.798,37.146 82.847,36.823 82.873,36.246 L82.894,31.409 C82.894,30.928 82.505,30.538 82.022,30.538 L80.896,30.538 C80.298,30.538 79.817,30.055 79.817,29.458 L79.853,19.357 C79.882,17.861 79.277,16.83 78.13,16.005 C76.161,14.585 70.359,10.467 69.411,9.861 C68.759,9.434 68.048,9.264 67.253,9.274 L57.246,9.264 C56.393,9.264 55.703,8.573 55.703,7.721 L55.703,7.409 C55.703,6.548 56.403,5.847 57.265,5.847 L66.335,5.847 C67.195,5.847 67.897,5.147 67.897,4.285 L67.897,2.476 C67.897,1.615 67.196,0.914 66.335,0.914 L36.222,0.914 C35.36,0.914 34.66,1.614 34.66,2.476 L34.66,4.285 C34.66,5.146 35.36,5.847 36.222,5.847 L46.038,5.847 C46.9,5.847 47.601,6.548 47.601,7.409 L47.601,7.769 C47.601,8.621 46.91,9.321 46.046,9.311 L36.135,9.274 C34.24,9.217 32.689,9.861 31.249,10.902 C29.147,12.426 27.084,13.998 25.02,15.57 C24.499,15.967 23.846,16.185 23.193,16.175 C21.206,16.155 19.217,16.155 17.229,16.175 C14.758,16.194 13.159,17.784 13.139,20.265 L13.167,27.166 C13.167,27.752 12.693,28.235 12.097,28.235 L11.17,28.235 C10.043,28.235 9.134,29.144 9.134,30.271 L9.134,41.206 C9.134,42.332 10.043,43.24 11.17,43.24 L12.069,43.24 C12.656,43.24 13.138,43.715 13.138,44.31 C13.138,45.88 13.128,48.806 13.138,50.499 C13.138,52.072 13.11,55.025 15.988,55.025 L56.358,55.025 C56.784,55.027 57.229,54.942 57.617,54.781 Z" id="Shape"></path>
            </g>
        </g>
    </g>
</svg>