<?xml version="1.0" encoding="UTF-8"?>
<svg width="915px" height="915px" viewBox="0 0 915 915" version="1.1" xmlns="http://www.w3.org/2000/svg" xmlns:xlink="http://www.w3.org/1999/xlink">
    <!-- Generator: Sketch 41 (35326) - http://www.bohemiancoding.com/sketch -->
    <title>tool-1</title>
    <desc>Created with Sketch.</desc>
    <defs></defs>
    <g id="Page-1" stroke="none" stroke-width="1" fill="none" fill-rule="evenodd">
        <g id="tool-1" fill="#0080C5">
            <g id="Group">
                <path d="M486.769,58.598 C475.359,58.598 464.055,59.049 452.871,59.925 L452.871,148.874 C452.871,170.606 435.875,188.583 414.181,189.8 C385.005,191.437 356.836,198.256 330.456,210.068 C304.014,221.909 280.06,238.459 259.259,259.258 C238.459,280.058 221.909,304.012 210.068,330.455 C198.256,356.834 191.436,385.002 189.8,414.178 C188.583,435.873 170.606,452.869 148.874,452.869 L59.926,452.869 C59.05,464.054 58.598,475.359 58.598,486.769 C58.598,723.242 250.297,914.939 486.769,914.939 C723.241,914.939 914.939,723.24 914.939,486.77 C914.939,250.297 723.241,58.598 486.769,58.598 Z M670.618,670.619 C621.51,719.726 556.219,746.771 486.768,746.771 C417.318,746.771 352.027,719.726 302.918,670.619 C253.809,621.512 226.765,556.219 226.765,486.769 C226.765,417.318 253.81,352.027 302.918,302.918 C352.026,253.81 417.318,226.765 486.768,226.765 C556.218,226.765 621.509,253.81 670.618,302.918 C719.727,352.026 746.771,417.318 746.771,486.769 C746.771,556.219 719.727,621.512 670.618,670.619 Z" id="Shape"></path>
                <path d="M486.769,276.767 C370.974,276.767 276.767,370.974 276.767,486.769 C276.767,602.564 370.974,696.771 486.769,696.771 C602.565,696.771 696.772,602.564 696.772,486.769 C696.771,370.974 602.564,276.767 486.769,276.767 Z M486.769,322.146 C499.75,322.146 510.276,332.67 510.276,345.653 C510.276,358.635 499.752,369.16 486.769,369.16 C473.786,369.16 463.262,358.636 463.262,345.653 C463.262,332.671 473.786,322.146 486.769,322.146 Z M344.258,511.67 C331.277,511.67 320.751,501.147 320.751,488.162 C320.751,475.182 331.275,464.656 344.258,464.656 C357.241,464.656 367.765,475.179 367.765,488.162 C367.765,501.146 357.241,511.67 344.258,511.67 Z M486.769,654.182 C473.787,654.182 463.262,643.657 463.262,630.674 C463.262,617.691 473.785,607.166 486.769,607.166 C499.751,607.166 510.276,617.691 510.276,630.674 C510.276,643.657 499.751,654.182 486.769,654.182 Z M486.769,561.803 C445.329,561.803 411.735,528.209 411.735,486.77 C411.735,445.329 445.329,411.735 486.769,411.735 C528.208,411.735 561.803,445.329 561.803,486.77 C561.803,528.209 528.209,561.803 486.769,561.803 Z M652.785,488.162 C652.785,501.144 642.262,511.67 629.278,511.67 C616.296,511.67 605.772,501.147 605.772,488.162 C605.772,475.182 616.295,464.656 629.278,464.656 C642.262,464.656 652.785,475.182 652.785,488.162 Z" id="Shape"></path>
                <path d="M16.004,427.871 L62.621,427.871 L148.874,427.871 C157.357,427.871 164.364,421.249 164.839,412.779 C168.468,348.082 195.395,287.768 241.581,241.581 C287.769,195.395 348.082,168.469 412.779,164.84 C421.249,164.365 427.871,157.358 427.871,148.875 L427.871,62.622 L427.871,16.004 C427.871,7.173 420.727,0 411.974,0 C411.772,0 411.569,0.004 411.365,0.012 C188.018,8.478 8.478,188.018 0.012,411.364 C-0.33,420.393 6.969,427.871 16.004,427.871 Z" id="Shape"></path>
            </g>
        </g>
    </g>
</svg>