<?xml version="1.0" encoding="UTF-8"?>
<svg width="926px" height="677px" viewBox="0 0 926 677" version="1.1" xmlns="http://www.w3.org/2000/svg" xmlns:xlink="http://www.w3.org/1999/xlink">
    <!-- Generator: Sketch 41 (35326) - http://www.bohemiancoding.com/sketch -->
    <title>tool-2</title>
    <desc>Created with Sketch.</desc>
    <defs></defs>
    <g id="Page-1" stroke="none" stroke-width="1" fill="none" fill-rule="evenodd">
        <g id="tool-2" fill="#0080C5">
            <g id="Group">
                <path d="M612.744,149.408 L864.535,149.408 C874.076,149.408 881.812,141.672 881.812,132.13 L881.812,85.329 C881.812,75.787 874.076,68.051 864.535,68.051 L582.434,68.051 C587.104,77.13 591.516,86.82 595.641,97.148 C602.084,113.283 607.799,130.788 612.744,149.408 Z" id="Shape"></path>
                <path d="M925.588,238.705 C925.588,229.163 917.852,221.427 908.311,221.427 L627.24,221.427 C630.998,247.454 633.492,274.732 634.644,302.784 L908.308,302.784 C917.851,302.784 925.587,295.048 925.587,285.506 L925.587,238.705 L925.588,238.705 Z" id="Shape"></path>
                <path d="M925.588,438.883 L925.588,392.082 C925.588,382.539 917.852,374.804 908.311,374.804 L634.645,374.804 C633.495,402.857 630.999,430.135 627.241,456.161 L908.311,456.161 C917.852,456.161 925.588,448.425 925.588,438.883 Z" id="Shape"></path>
                <path d="M881.814,592.259 L881.814,545.458 C881.814,535.916 874.078,528.18 864.535,528.18 L612.744,528.18 C607.799,546.8 602.084,564.305 595.64,580.441 C591.515,590.769 587.103,600.46 582.433,609.539 L864.535,609.539 C874.078,609.538 881.814,601.802 881.814,592.259 Z" id="Shape"></path>
                <path d="M458.533,676.794 C498.069,676.794 529.883,651.02 553.979,609.538 C567.28,586.642 578.225,558.956 586.821,528.181 C593.124,505.616 598.165,481.387 601.938,456.162 C605.872,429.872 608.432,402.502 609.618,374.805 C610.643,350.879 610.643,326.711 609.618,302.785 C608.432,275.088 605.872,247.717 601.938,221.428 C598.165,196.203 593.126,171.975 586.821,149.409 C578.225,118.633 567.28,90.948 553.979,68.052 C529.883,26.568 498.067,0.794 458.533,0.794 C256.061,0.794 0,152.122 0,338.794 C0,525.466 256.061,676.794 458.533,676.794 Z" id="Shape"></path>
            </g>
        </g>
    </g>
</svg>