<?xml version="1.0" encoding="UTF-8"?>
<svg width="950px" height="424px" viewBox="0 0 950 424" version="1.1" xmlns="http://www.w3.org/2000/svg" xmlns:xlink="http://www.w3.org/1999/xlink">
    <!-- Generator: Sketch 41 (35326) - http://www.bohemiancoding.com/sketch -->
    <title>tool</title>
    <desc>Created with Sketch.</desc>
    <defs></defs>
    <g id="Page-1" stroke="none" stroke-width="1" fill="none" fill-rule="evenodd">
        <g id="tool" transform="translate(-1.000000, 0.000000)" fill="#0080C5">
            <g id="Group">
                <path d="M27.511,139.809 C41.227,151.206 128.587,224.372 158.49,249.629 C160.182,251.059 173.013,327.959 178.753,364.042 C184.077,397.51 207.101,425.034 246.87,423.782 C273.687,422.938 448.989,423.406 509.786,423.737 C528.363,423.838 544.054,417.79 557.564,405.299 C567.625,395.998 778.355,211.34 805.283,187.745 C807.079,186.172 809.464,185.459 811.829,185.785 L845.96,190.489 C850.135,191.065 854.07,188.395 855.079,184.303 L868.425,130.163 C869.407,126.18 867.306,122.08 863.499,120.552 L788.162,90.299 C785.927,89.402 783.411,89.528 781.277,90.644 C761.272,101.112 657.961,155.209 632.548,169.221 C632.548,169.221 597,143.853 581.223,132.594 C568.898,123.797 555.145,117.866 539.21,118.037 C506.274,118.391 437.335,118.126 435.679,118.126 L435.679,111.252 C435.679,108.406 437.987,106.099 440.832,106.099 L476.762,106.099 C480.197,106.099 482.981,103.315 482.981,99.88 L482.981,29.7 C482.981,26.266 480.198,23.482 476.765,23.481 L287.97,23.407 C284.536,23.406 281.751,26.187 281.749,29.621 L281.697,100.094 C281.694,103.531 284.48,106.318 287.916,106.318 L320.902,106.318 C323.748,106.318 326.055,108.625 326.055,111.472 L326.055,118.127 L250.582,118.169 C250.582,118.169 120.235,10.723 108.767,6.247 C90.189,-1.004 71.58,-2.236 52.843,5.16 C31.299,13.663 16.94,29.406 7.695,50.35 C-6.142,81.706 1.948,118.564 27.511,139.809 Z M229.635,162.557 C280.41,162.238 331.189,162.445 381.966,162.44 C432.602,162.436 483.237,162.42 533.873,162.417 C534.204,162.391 534.527,162.371 534.844,162.359 C541.279,162.13 541.756,171.808 535.342,172.364 C485.535,176.683 307.65,190.762 263.763,194.23 C258.105,194.676 253.628,199.196 253.231,204.857 C253.231,204.857 242.283,360.967 242.257,361.34 C241.959,365.589 236.668,368.467 232.641,368.238 C226.959,367.916 226.714,364.205 226.086,359.477 C224.981,351.151 223.937,342.816 222.861,334.485 C219.868,311.297 216.872,288.109 213.868,264.923 C210.709,240.538 208.191,215.956 204.283,191.676 C201.379,173.647 212.932,162.661 229.635,162.557 Z M45.805,68.015 C54.859,45.829 81.205,33.509 101.628,50.24 C101.846,50.419 189.335,122.092 189.335,122.092 C161.254,135.587 146.312,156.03 151.643,188.833 C145.418,183.628 81.674,130.388 55.46,108.206 C43.243,97.867 39.76,82.828 45.805,68.015 Z" id="Shape"></path>
                <path d="M905.436,200.771 C901.189,196.255 896.579,192.282 891.294,189.012 C886.331,185.941 880.125,190.098 880.818,195.893 C882.354,208.745 879.39,220.842 873.719,232.587 C856.865,267.495 823.157,310.677 853.222,348.227 C870.644,369.985 905.79,375.847 928,359.006 C946.812,344.741 953.356,318.61 950.267,295.203 C946.011,262.947 927.739,224.483 905.436,200.771 Z" id="Shape"></path>
            </g>
        </g>
    </g>
</svg>