<?xml version="1.0" encoding="UTF-8"?>
<svg width="936px" height="907px" viewBox="0 0 936 907" version="1.1" xmlns="http://www.w3.org/2000/svg" xmlns:xlink="http://www.w3.org/1999/xlink">
    <!-- Generator: Sketch 41 (35326) - http://www.bohemiancoding.com/sketch -->
    <title>tool-3</title>
    <desc>Created with Sketch.</desc>
    <defs></defs>
    <g id="Page-1" stroke="none" stroke-width="1" fill="none" fill-rule="evenodd">
        <g id="tool-3" fill="#0080C5">
            <g id="Group">
                <path d="M634.661,120.729 C642.243,120.729 648.39,114.583 648.39,107 L648.39,75.913 C648.39,68.331 642.244,62.185 634.661,62.185 L508.775,62.185 L508.775,14.582 C508.775,7 502.629,0.854 495.046,0.854 L442.348,0.854 C434.766,0.854 428.619,7 428.619,14.582 L428.619,412.929 C381.437,429.721 347.913,475.315 349.223,528.557 C349.832,553.351 358.11,576.311 371.732,595.185 C378.683,583.643 386.689,571.523 397.124,560.813 C416.713,540.707 441.1,530.079 467.646,530.079 C494.192,530.079 518.578,540.706 538.168,560.813 C549.112,572.046 557.39,584.834 564.576,596.876 C579.414,576.965 588.207,552.284 588.207,525.543 C588.207,473.599 555.064,429.402 508.774,412.928 L508.774,321.448 L634.66,321.448 C642.242,321.448 648.389,315.302 648.389,307.72 L648.389,276.633 C648.389,269.051 642.243,262.905 634.66,262.905 L508.775,262.905 L508.775,221.088 L634.661,221.088 C642.243,221.088 648.39,214.942 648.39,207.36 L648.39,176.273 C648.39,168.691 642.244,162.545 634.661,162.545 L508.775,162.545 L508.775,120.729 L634.661,120.729 L634.661,120.729 Z" id="Shape"></path>
                <path d="M855.271,617.462 C840.323,643.032 831.812,655.079 818.394,655.079 C804.977,655.079 796.464,643.032 781.517,617.462 C773.573,603.874 765.359,589.822 754.09,578.258 C739.106,562.878 721.402,555.079 701.475,555.079 C681.546,555.079 663.844,562.878 648.86,578.258 C637.592,589.823 629.379,603.874 621.436,617.463 C606.489,643.032 597.978,655.079 584.562,655.079 C571.146,655.079 562.634,643.032 547.687,617.462 C547.399,616.97 547.109,616.475 546.82,615.981 C539.142,602.858 531.121,589.405 520.262,578.259 C505.278,562.878 487.575,555.079 467.647,555.079 C447.719,555.079 430.017,562.878 415.032,578.26 C404.544,589.025 396.703,601.943 389.261,614.638 C388.708,615.58 388.157,616.524 387.608,617.463 C372.661,643.032 364.151,655.079 350.735,655.079 C337.32,655.079 328.809,643.032 313.862,617.462 C305.919,603.874 297.705,589.823 286.438,578.26 C271.454,562.878 253.75,555.079 233.824,555.079 C213.896,555.079 196.194,562.878 181.209,578.259 C169.942,589.823 161.728,603.874 153.784,617.463 C138.837,643.032 130.327,655.079 116.91,655.079 C103.495,655.079 94.986,643.032 80.039,617.463 C72.096,603.875 63.883,589.823 52.616,578.26 C37.63,562.879 19.928,555.079 0,555.079 L0,605.079 C13.415,605.079 21.924,617.126 36.871,642.695 C44.814,656.283 53.027,670.336 64.294,681.899 C79.278,697.28 96.98,705.079 116.908,705.079 C136.836,705.079 154.538,697.28 169.523,681.9 C180.79,670.335 189.004,656.284 196.947,642.695 C211.894,617.126 220.404,605.079 233.82,605.079 C247.236,605.079 255.746,617.126 270.693,642.695 C278.635,656.284 286.85,670.335 298.117,681.899 C313.102,697.28 330.804,705.079 350.732,705.079 C370.66,705.079 388.362,697.28 403.346,681.9 C414.614,670.335 422.827,656.284 430.771,642.696 C445.717,617.126 454.229,605.079 467.645,605.079 C481.061,605.079 489.572,617.126 504.52,642.696 C512.462,656.284 520.676,670.335 531.944,681.9 C546.928,697.28 564.632,705.079 584.56,705.079 C604.488,705.079 622.19,697.28 637.174,681.9 C648.442,670.335 656.655,656.284 664.599,642.695 C679.545,617.126 688.056,605.079 701.472,605.079 C714.888,605.079 723.401,617.126 738.349,642.696 C746.291,656.284 754.506,670.336 765.775,681.9 C780.759,697.28 798.463,705.079 818.391,705.079 C838.319,705.079 856.022,697.28 871.006,681.9 C882.275,670.336 890.488,656.284 898.433,642.696 C913.38,617.126 921.893,605.079 935.31,605.079 L935.31,555.079 C915.382,555.079 897.679,562.878 882.694,578.258 C871.428,589.822 863.214,603.874 855.271,617.462 Z" id="Shape"></path>
                <path d="M855.271,818.84 C840.323,844.41 831.812,856.457 818.394,856.457 C804.977,856.457 796.464,844.41 781.517,818.84 C773.573,805.252 765.359,791.2 754.09,779.637 C739.106,764.256 721.402,756.457 701.475,756.457 C681.546,756.457 663.844,764.256 648.86,779.637 C637.592,791.201 629.379,805.252 621.436,818.842 C606.489,844.41 597.978,856.457 584.562,856.457 C571.146,856.457 562.634,844.41 547.687,818.84 C539.744,805.252 531.53,791.201 520.262,779.637 C505.278,764.256 487.575,756.457 467.647,756.457 C447.719,756.457 430.017,764.256 415.032,779.638 C403.764,791.201 395.551,805.252 387.608,818.842 C372.661,844.41 364.151,856.457 350.735,856.457 C337.32,856.457 328.809,844.41 313.862,818.84 C305.919,805.252 297.705,791.201 286.438,779.638 C271.454,764.256 253.75,756.457 233.824,756.457 C213.896,756.457 196.194,764.256 181.209,779.637 C169.942,791.201 161.728,805.252 153.784,818.842 C138.837,844.41 130.327,856.457 116.91,856.457 C103.495,856.457 94.986,844.41 80.039,818.842 C72.096,805.253 63.883,791.201 52.616,779.638 C37.632,764.257 19.93,756.457 0.002,756.457 L0.002,806.457 C13.417,806.457 21.926,818.504 36.873,844.073 C44.816,857.661 53.029,871.714 64.296,883.277 C79.28,898.658 96.982,906.457 116.91,906.457 C136.838,906.457 154.54,898.658 169.525,883.278 C180.792,871.713 189.006,857.662 196.949,844.073 C211.896,818.504 220.406,806.457 233.822,806.457 C247.238,806.457 255.748,818.504 270.695,844.073 C278.637,857.662 286.852,871.713 298.119,883.277 C313.104,898.658 330.806,906.457 350.734,906.457 C370.662,906.457 388.364,898.658 403.348,883.278 C414.616,871.713 422.829,857.662 430.773,844.074 C445.719,818.504 454.231,806.457 467.647,806.457 C481.063,806.457 489.574,818.504 504.522,844.074 C512.464,857.662 520.678,871.713 531.946,883.278 C546.93,898.658 564.634,906.457 584.562,906.457 C604.49,906.457 622.192,898.658 637.176,883.278 C648.444,871.713 656.657,857.662 664.601,844.073 C679.547,818.504 688.057,806.457 701.473,806.457 C714.891,806.457 723.403,818.504 738.351,844.074 C746.293,857.662 754.508,871.714 765.777,883.278 C780.761,898.658 798.465,906.457 818.393,906.457 C838.321,906.457 856.024,898.658 871.008,883.278 C882.277,871.714 890.49,857.662 898.435,844.074 C913.382,818.504 921.895,806.457 935.312,806.457 L935.312,756.457 C915.383,756.457 897.681,764.256 882.696,779.637 C871.428,791.2 863.214,805.252 855.271,818.84 Z" id="Shape"></path>
            </g>
        </g>
    </g>
</svg>